<?xml version="1.0" encoding="UTF-8" standalone="no"?><svg xmlns="http://www.w3.org/2000/svg" xmlns:xlink="http://www.w3.org/1999/xlink" contentScriptType="application/ecmascript" contentStyleType="text/css" height="99px" preserveAspectRatio="none" style="width:202px;height:99px;" version="1.1" viewBox="0 0 202 99" width="202px" zoomAndPan="magnify"><defs><filter height="300%" id="ftyf5byjvzti9" width="300%" x="-1" y="-1"><feGaussianBlur result="blurOut" stdDeviation="2.0"/><feColorMatrix in="blurOut" result="blurOut2" type="matrix" values="0 0 0 0 0 0 0 0 0 0 0 0 0 0 0 0 0 0 .4 0"/><feOffset dx="4.0" dy="4.0" in="blurOut2" result="blurOut3"/><feBlend in="SourceGraphic" in2="blurOut3" mode="normal"/></filter></defs><g><!--MD5=[33d220b2908b3f90599b2d724ac46d5b]
class package1.feedback--><a href="feedback.html" target="_top" title="feedback.html" xlink:actuate="onRequest" xlink:href="feedback.html" xlink:show="new" xlink:title="feedback.html" xlink:type="simple"><rect codeLine="5" fill="#FEFECE" filter="url(#ftyf5byjvzti9)" height="62.0234" id="package1.feedback" style="stroke: #A80036; stroke-width: 1.5;" width="116" x="37" y="7"/><ellipse cx="63.7" cy="27.0938" fill="#ADD1B2" rx="11" ry="11" style="stroke: #A80036; stroke-width: 1.0;"/><path d="M66.4656,22.9688 Q66.6219,22.75 66.8094,22.6406 Q66.9969,22.5313 67.2156,22.5313 Q67.5906,22.5313 67.825,22.7969 Q68.0594,23.0469 68.0594,23.6563 L68.0594,25.1094 Q68.0594,25.7188 67.825,25.9844 Q67.5906,26.25 67.2156,26.25 Q66.8719,26.25 66.6688,26.0469 Q66.4656,25.8594 66.3563,25.3438 Q66.3094,24.9844 66.1219,24.7969 Q65.7938,24.4219 65.1844,24.2031 Q64.575,23.9844 63.95,23.9844 Q63.1844,23.9844 62.5438,24.3125 Q61.9188,24.6406 61.4188,25.3906 Q60.9344,26.1406 60.9344,27.1719 L60.9344,28.2656 Q60.9344,29.5 61.825,30.3281 Q62.7156,31.1406 64.3094,31.1406 Q65.2469,31.1406 65.9031,30.8906 Q66.2938,30.7344 66.7156,30.2969 Q66.9813,30.0313 67.1219,29.9531 Q67.2781,29.875 67.4813,29.875 Q67.8094,29.875 68.0594,30.1406 Q68.325,30.3906 68.325,30.7344 Q68.325,31.0781 67.9813,31.4844 Q67.4813,32.0625 66.6844,32.3906 Q65.6063,32.8438 64.3094,32.8438 Q62.7938,32.8438 61.5906,32.2188 Q60.6063,31.7188 59.9188,30.6563 Q59.2313,29.5781 59.2313,28.2969 L59.2313,27.1406 Q59.2313,25.8125 59.8406,24.6719 Q60.4656,23.5156 61.5594,22.9063 Q62.6531,22.2813 63.8875,22.2813 Q64.6219,22.2813 65.2625,22.4531 Q65.9188,22.6094 66.4656,22.9688 Z "/><text fill="#000000" font-family="sans-serif" font-size="14" lengthAdjust="spacingAndGlyphs" textLength="58" x="80.3" y="26.5332">feedback</text><text fill="#000000" font-family="sans-serif" font-size="10" lengthAdjust="spacingAndGlyphs" textLength="46" x="86.3" y="39.9902">package1</text><line style="stroke: #A80036; stroke-width: 1.5;" x1="38" x2="152" y1="47.1875" y2="47.1875"/><ellipse cx="48" cy="58.1875" fill="#84BE84" rx="3" ry="3" style="stroke: #038048; stroke-width: 1.0;"/><text fill="#000000" font-family="sans-serif" font-size="11" lengthAdjust="spacingAndGlyphs" text-decoration="underline" textLength="90" x="57" y="62.6064">main(String[]): void</text></a><text fill="#888888" font-family="sans-serif" font-size="10" lengthAdjust="spacingAndGlyphs" textLength="190" x="0" y="86.4043">UMLDoclet 2.0.12, PlantUML 1.2020.16</text><!--MD5=[2ee9f0f0737fe2588386ead645aabcee]
@startuml
    set namespaceSeparator none
    hide empty fields
    hide empty methods

    class "<size:14>feedback\n<size:10>package1" as package1.feedback [[feedback.html]] {
        {static} +main(String[]): void
    }

    center footer UMLDoclet 2.0.12, PlantUML 1.2020.16
@enduml

PlantUML version 1.2020.16(Mon Aug 24 01:50:43 IST 2020)
(APACHE source distribution)
Java Runtime: OpenJDK Runtime Environment
JVM: OpenJDK 64-Bit Server VM
Default Encoding: Cp1252
Language: en
Country: IN
--></g></svg>