<?xml version="1.0" encoding="UTF-8" standalone="no"?><svg xmlns="http://www.w3.org/2000/svg" xmlns:xlink="http://www.w3.org/1999/xlink" contentScriptType="application/ecmascript" contentStyleType="text/css" height="99px" preserveAspectRatio="none" style="width:202px;height:99px;" version="1.1" viewBox="0 0 202 99" width="202px" zoomAndPan="magnify"><defs><filter height="300%" id="f1er5tvki7se7t" width="300%" x="-1" y="-1"><feGaussianBlur result="blurOut" stdDeviation="2.0"/><feColorMatrix in="blurOut" result="blurOut2" type="matrix" values="0 0 0 0 0 0 0 0 0 0 0 0 0 0 0 0 0 0 .4 0"/><feOffset dx="4.0" dy="4.0" in="blurOut2" result="blurOut3"/><feBlend in="SourceGraphic" in2="blurOut3" mode="normal"/></filter></defs><g><!--MD5=[f78935505a5c0ef569a9305bc9574835]
class package1.withdraw--><a href="withdraw.html" target="_top" title="withdraw.html" xlink:actuate="onRequest" xlink:href="withdraw.html" xlink:show="new" xlink:title="withdraw.html" xlink:type="simple"><rect codeLine="5" fill="#FEFECE" filter="url(#f1er5tvki7se7t)" height="62.0234" id="package1.withdraw" style="stroke: #A80036; stroke-width: 1.5;" width="117" x="36.5" y="7"/><ellipse cx="65.45" cy="27.0938" fill="#ADD1B2" rx="11" ry="11" style="stroke: #A80036; stroke-width: 1.0;"/><path d="M68.2156,22.9688 Q68.3719,22.75 68.5594,22.6406 Q68.7469,22.5313 68.9656,22.5313 Q69.3406,22.5313 69.575,22.7969 Q69.8094,23.0469 69.8094,23.6563 L69.8094,25.1094 Q69.8094,25.7188 69.575,25.9844 Q69.3406,26.25 68.9656,26.25 Q68.6219,26.25 68.4188,26.0469 Q68.2156,25.8594 68.1063,25.3438 Q68.0594,24.9844 67.8719,24.7969 Q67.5438,24.4219 66.9344,24.2031 Q66.325,23.9844 65.7,23.9844 Q64.9344,23.9844 64.2938,24.3125 Q63.6688,24.6406 63.1688,25.3906 Q62.6844,26.1406 62.6844,27.1719 L62.6844,28.2656 Q62.6844,29.5 63.575,30.3281 Q64.4656,31.1406 66.0594,31.1406 Q66.9969,31.1406 67.6531,30.8906 Q68.0438,30.7344 68.4656,30.2969 Q68.7313,30.0313 68.8719,29.9531 Q69.0281,29.875 69.2313,29.875 Q69.5594,29.875 69.8094,30.1406 Q70.075,30.3906 70.075,30.7344 Q70.075,31.0781 69.7313,31.4844 Q69.2313,32.0625 68.4344,32.3906 Q67.3563,32.8438 66.0594,32.8438 Q64.5438,32.8438 63.3406,32.2188 Q62.3563,31.7188 61.6688,30.6563 Q60.9813,29.5781 60.9813,28.2969 L60.9813,27.1406 Q60.9813,25.8125 61.5906,24.6719 Q62.2156,23.5156 63.3094,22.9063 Q64.4031,22.2813 65.6375,22.2813 Q66.3719,22.2813 67.0125,22.4531 Q67.6688,22.6094 68.2156,22.9688 Z "/><text fill="#000000" font-family="sans-serif" font-size="14" lengthAdjust="spacingAndGlyphs" textLength="54" x="82.55" y="26.5332">withdraw</text><text fill="#000000" font-family="sans-serif" font-size="10" lengthAdjust="spacingAndGlyphs" textLength="46" x="86.55" y="39.9902">package1</text><line style="stroke: #A80036; stroke-width: 1.5;" x1="37.5" x2="152.5" y1="47.1875" y2="47.1875"/><ellipse cx="47.5" cy="58.1875" fill="none" rx="3" ry="3" style="stroke: #038048; stroke-width: 1.0;"/><text fill="#000000" font-family="sans-serif" font-size="11" lengthAdjust="spacingAndGlyphs" text-decoration="underline" textLength="91" x="56.5" y="62.6064">withdraw3: double</text></a><text fill="#888888" font-family="sans-serif" font-size="10" lengthAdjust="spacingAndGlyphs" textLength="190" x="0" y="86.4043">UMLDoclet 2.0.12, PlantUML 1.2020.16</text><!--MD5=[2019688f331ec00d840bd05e815d14f1]
@startuml
    set namespaceSeparator none
    hide empty fields
    hide empty methods

    class "<size:14>withdraw\n<size:10>package1" as package1.withdraw [[withdraw.html]] {
        {static} +withdraw3: double
    }

    center footer UMLDoclet 2.0.12, PlantUML 1.2020.16
@enduml

PlantUML version 1.2020.16(Mon Aug 24 01:50:43 IST 2020)
(APACHE source distribution)
Java Runtime: OpenJDK Runtime Environment
JVM: OpenJDK 64-Bit Server VM
Default Encoding: Cp1252
Language: en
Country: IN
--></g></svg>