<?xml version="1.0" encoding="UTF-8" standalone="no"?><svg xmlns="http://www.w3.org/2000/svg" xmlns:xlink="http://www.w3.org/1999/xlink" contentScriptType="application/ecmascript" contentStyleType="text/css" height="227px" preserveAspectRatio="none" style="width:202px;height:227px;" version="1.1" viewBox="0 0 202 227" width="202px" zoomAndPan="magnify"><defs><filter height="300%" id="fwld29snnrbh0" width="300%" x="-1" y="-1"><feGaussianBlur result="blurOut" stdDeviation="2.0"/><feColorMatrix in="blurOut" result="blurOut2" type="matrix" values="0 0 0 0 0 0 0 0 0 0 0 0 0 0 0 0 0 0 .4 0"/><feOffset dx="4.0" dy="4.0" in="blurOut2" result="blurOut3"/><feBlend in="SourceGraphic" in2="blurOut3" mode="normal"/></filter></defs><g><!--MD5=[e1f8197d66c6dfd1c47ee0e186c39369]
class package1.deposit--><a href="deposit.html" target="_top" title="deposit.html" xlink:actuate="onRequest" xlink:href="deposit.html" xlink:show="new" xlink:title="deposit.html" xlink:type="simple"><rect codeLine="5" fill="#FEFECE" filter="url(#fwld29snnrbh0)" height="83.8594" id="package1.deposit" style="stroke: #A80036; stroke-width: 1.5;" width="139" x="28.5" y="107"/><ellipse cx="70.95" cy="127.0938" fill="#ADD1B2" rx="11" ry="11" style="stroke: #A80036; stroke-width: 1.0;"/><path d="M73.7156,122.9688 Q73.8719,122.75 74.0594,122.6406 Q74.2469,122.5313 74.4656,122.5313 Q74.8406,122.5313 75.075,122.7969 Q75.3094,123.0469 75.3094,123.6563 L75.3094,125.1094 Q75.3094,125.7188 75.075,125.9844 Q74.8406,126.25 74.4656,126.25 Q74.1219,126.25 73.9188,126.0469 Q73.7156,125.8594 73.6063,125.3438 Q73.5594,124.9844 73.3719,124.7969 Q73.0438,124.4219 72.4344,124.2031 Q71.825,123.9844 71.2,123.9844 Q70.4344,123.9844 69.7938,124.3125 Q69.1688,124.6406 68.6688,125.3906 Q68.1844,126.1406 68.1844,127.1719 L68.1844,128.2656 Q68.1844,129.5 69.075,130.3281 Q69.9656,131.1406 71.5594,131.1406 Q72.4969,131.1406 73.1531,130.8906 Q73.5438,130.7344 73.9656,130.2969 Q74.2313,130.0313 74.3719,129.9531 Q74.5281,129.875 74.7313,129.875 Q75.0594,129.875 75.3094,130.1406 Q75.575,130.3906 75.575,130.7344 Q75.575,131.0781 75.2313,131.4844 Q74.7313,132.0625 73.9344,132.3906 Q72.8563,132.8438 71.5594,132.8438 Q70.0438,132.8438 68.8406,132.2188 Q67.8563,131.7188 67.1688,130.6563 Q66.4813,129.5781 66.4813,128.2969 L66.4813,127.1406 Q66.4813,125.8125 67.0906,124.6719 Q67.7156,123.5156 68.8094,122.9063 Q69.9031,122.2813 71.1375,122.2813 Q71.8719,122.2813 72.5125,122.4531 Q73.1688,122.6094 73.7156,122.9688 Z "/><text fill="#000000" font-family="sans-serif" font-size="14" lengthAdjust="spacingAndGlyphs" textLength="46" x="91.05" y="126.5332">deposit</text><text fill="#000000" font-family="sans-serif" font-size="10" lengthAdjust="spacingAndGlyphs" textLength="46" x="91.05" y="139.9902">package1</text><line style="stroke: #A80036; stroke-width: 1.5;" x1="29.5" x2="166.5" y1="147.1875" y2="147.1875"/><ellipse cx="39.5" cy="158.1875" fill="none" rx="3" ry="3" style="stroke: #038048; stroke-width: 1.0;"/><text fill="#000000" font-family="sans-serif" font-size="11" lengthAdjust="spacingAndGlyphs" text-decoration="underline" textLength="79" x="48.5" y="162.6064">deposit4: double</text><line style="stroke: #A80036; stroke-width: 1.5;" x1="29.5" x2="166.5" y1="169.0234" y2="169.0234"/><ellipse cx="39.5" cy="180.0234" fill="#84BE84" rx="3" ry="3" style="stroke: #038048; stroke-width: 1.0;"/><text fill="#000000" font-family="sans-serif" font-size="11" lengthAdjust="spacingAndGlyphs" text-decoration="underline" textLength="113" x="48.5" y="184.4424">check(double): boolean</text></a><!--MD5=[18a7562403221f513ca44e0f82c4c17a]
class javax.swing.JFrame--><rect codeLine="10" fill="#FEFECE" filter="url(#fwld29snnrbh0)" height="40.1875" id="javax.swing.JFrame" style="stroke: #A80036; stroke-width: 1.5;" width="86" x="55" y="7"/><ellipse cx="70" cy="27.0938" fill="#ADD1B2" rx="11" ry="11" style="stroke: #A80036; stroke-width: 1.0;"/><path d="M72.7656,22.9688 Q72.9219,22.75 73.1094,22.6406 Q73.2969,22.5313 73.5156,22.5313 Q73.8906,22.5313 74.125,22.7969 Q74.3594,23.0469 74.3594,23.6563 L74.3594,25.1094 Q74.3594,25.7188 74.125,25.9844 Q73.8906,26.25 73.5156,26.25 Q73.1719,26.25 72.9688,26.0469 Q72.7656,25.8594 72.6563,25.3438 Q72.6094,24.9844 72.4219,24.7969 Q72.0938,24.4219 71.4844,24.2031 Q70.875,23.9844 70.25,23.9844 Q69.4844,23.9844 68.8438,24.3125 Q68.2188,24.6406 67.7188,25.3906 Q67.2344,26.1406 67.2344,27.1719 L67.2344,28.2656 Q67.2344,29.5 68.125,30.3281 Q69.0156,31.1406 70.6094,31.1406 Q71.5469,31.1406 72.2031,30.8906 Q72.5938,30.7344 73.0156,30.2969 Q73.2813,30.0313 73.4219,29.9531 Q73.5781,29.875 73.7813,29.875 Q74.1094,29.875 74.3594,30.1406 Q74.625,30.3906 74.625,30.7344 Q74.625,31.0781 74.2813,31.4844 Q73.7813,32.0625 72.9844,32.3906 Q71.9063,32.8438 70.6094,32.8438 Q69.0938,32.8438 67.8906,32.2188 Q66.9063,31.7188 66.2188,30.6563 Q65.5313,29.5781 65.5313,28.2969 L65.5313,27.1406 Q65.5313,25.8125 66.1406,24.6719 Q66.7656,23.5156 67.8594,22.9063 Q68.9531,22.2813 70.1875,22.2813 Q70.9219,22.2813 71.5625,22.4531 Q72.2188,22.6094 72.7656,22.9688 Z "/><text fill="#000000" font-family="sans-serif" font-size="14" lengthAdjust="spacingAndGlyphs" textLength="47" x="87.5" y="26.5332">JFrame</text><text fill="#000000" font-family="sans-serif" font-size="10" lengthAdjust="spacingAndGlyphs" textLength="54" x="84" y="39.9902">javax.swing</text><!--MD5=[ece482f4d743634b8ea699754302df59]
reverse link javax.swing.JFrame to package1.deposit--><path codeLine="12" d="M98,67.21 C98,79.94 98,94.1 98,106.96 " fill="none" id="javax.swing.JFrame-backto-package1.deposit" style="stroke: #A80036; stroke-width: 1.0;"/><polygon fill="none" points="91,67.01,98,47.01,105,67.01,91,67.01" style="stroke: #A80036; stroke-width: 1.0;"/><text fill="#888888" font-family="sans-serif" font-size="10" lengthAdjust="spacingAndGlyphs" textLength="190" x="0" y="214.2402">UMLDoclet 2.0.12, PlantUML 1.2020.16</text><!--MD5=[0bbf0d36b051f4b855ce553d49c3a1ff]
@startuml
    set namespaceSeparator none
    hide empty fields
    hide empty methods

    class "<size:14>deposit\n<size:10>package1" as package1.deposit [[deposit.html]] {
        {static} +deposit4: double
        {static} +check(double): boolean
    }

    class "<size:14>JFrame\n<size:10>javax.swing" as javax.swing.JFrame

    javax.swing.JFrame <|- - package1.deposit

    center footer UMLDoclet 2.0.12, PlantUML 1.2020.16
@enduml

PlantUML version 1.2020.16(Mon Aug 24 01:50:43 IST 2020)
(APACHE source distribution)
Java Runtime: OpenJDK Runtime Environment
JVM: OpenJDK 64-Bit Server VM
Default Encoding: Cp1252
Language: en
Country: IN
--></g></svg>