<?xml version="1.0" encoding="UTF-8" standalone="no"?><svg xmlns="http://www.w3.org/2000/svg" xmlns:xlink="http://www.w3.org/1999/xlink" contentScriptType="application/ecmascript" contentStyleType="text/css" height="78px" preserveAspectRatio="none" style="width:202px;height:78px;" version="1.1" viewBox="0 0 202 78" width="202px" zoomAndPan="magnify"><defs><filter height="300%" id="f1og3np20njx6j" width="300%" x="-1" y="-1"><feGaussianBlur result="blurOut" stdDeviation="2.0"/><feColorMatrix in="blurOut" result="blurOut2" type="matrix" values="0 0 0 0 0 0 0 0 0 0 0 0 0 0 0 0 0 0 .4 0"/><feOffset dx="4.0" dy="4.0" in="blurOut2" result="blurOut3"/><feBlend in="SourceGraphic" in2="blurOut3" mode="normal"/></filter></defs><g><!--MD5=[278797e8a0863886c35a9d9cb7054d76]
class package1.genbill--><a href="genbill.html" target="_top" title="genbill.html" xlink:actuate="onRequest" xlink:href="genbill.html" xlink:show="new" xlink:title="genbill.html" xlink:type="simple"><rect codeLine="5" fill="#FEFECE" filter="url(#f1og3np20njx6j)" height="40.1875" id="package1.genbill" style="stroke: #A80036; stroke-width: 1.5;" width="78" x="56" y="7"/><ellipse cx="71" cy="27.0938" fill="#ADD1B2" rx="11" ry="11" style="stroke: #A80036; stroke-width: 1.0;"/><path d="M73.7656,22.9688 Q73.9219,22.75 74.1094,22.6406 Q74.2969,22.5313 74.5156,22.5313 Q74.8906,22.5313 75.125,22.7969 Q75.3594,23.0469 75.3594,23.6563 L75.3594,25.1094 Q75.3594,25.7188 75.125,25.9844 Q74.8906,26.25 74.5156,26.25 Q74.1719,26.25 73.9688,26.0469 Q73.7656,25.8594 73.6563,25.3438 Q73.6094,24.9844 73.4219,24.7969 Q73.0938,24.4219 72.4844,24.2031 Q71.875,23.9844 71.25,23.9844 Q70.4844,23.9844 69.8438,24.3125 Q69.2188,24.6406 68.7188,25.3906 Q68.2344,26.1406 68.2344,27.1719 L68.2344,28.2656 Q68.2344,29.5 69.125,30.3281 Q70.0156,31.1406 71.6094,31.1406 Q72.5469,31.1406 73.2031,30.8906 Q73.5938,30.7344 74.0156,30.2969 Q74.2813,30.0313 74.4219,29.9531 Q74.5781,29.875 74.7813,29.875 Q75.1094,29.875 75.3594,30.1406 Q75.625,30.3906 75.625,30.7344 Q75.625,31.0781 75.2813,31.4844 Q74.7813,32.0625 73.9844,32.3906 Q72.9063,32.8438 71.6094,32.8438 Q70.0938,32.8438 68.8906,32.2188 Q67.9063,31.7188 67.2188,30.6563 Q66.5313,29.5781 66.5313,28.2969 L66.5313,27.1406 Q66.5313,25.8125 67.1406,24.6719 Q67.7656,23.5156 68.8594,22.9063 Q69.9531,22.2813 71.1875,22.2813 Q71.9219,22.2813 72.5625,22.4531 Q73.2188,22.6094 73.7656,22.9688 Z "/><text fill="#000000" font-family="sans-serif" font-size="14" lengthAdjust="spacingAndGlyphs" textLength="41" x="87.5" y="26.5332">genbill</text><text fill="#000000" font-family="sans-serif" font-size="10" lengthAdjust="spacingAndGlyphs" textLength="46" x="85" y="39.9902">package1</text></a><text fill="#888888" font-family="sans-serif" font-size="10" lengthAdjust="spacingAndGlyphs" textLength="190" x="0" y="64.5684">UMLDoclet 2.0.12, PlantUML 1.2020.16</text><!--MD5=[1472bcd99d13552c68f27a6320ffa985]
@startuml
    set namespaceSeparator none
    hide empty fields
    hide empty methods

    class "<size:14>genbill\n<size:10>package1" as package1.genbill [[genbill.html]]

    center footer UMLDoclet 2.0.12, PlantUML 1.2020.16
@enduml

PlantUML version 1.2020.16(Mon Aug 24 01:50:43 IST 2020)
(APACHE source distribution)
Java Runtime: OpenJDK Runtime Environment
JVM: OpenJDK 64-Bit Server VM
Default Encoding: Cp1252
Language: en
Country: IN
--></g></svg>