<?xml version="1.0" encoding="UTF-8" standalone="no"?><svg xmlns="http://www.w3.org/2000/svg" xmlns:xlink="http://www.w3.org/1999/xlink" contentScriptType="application/ecmascript" contentStyleType="text/css" height="332px" preserveAspectRatio="none" style="width:346px;height:332px;" version="1.1" viewBox="0 0 346 332" width="346px" zoomAndPan="magnify"><defs><filter height="300%" id="frc8rjopj2p79" width="300%" x="-1" y="-1"><feGaussianBlur result="blurOut" stdDeviation="2.0"/><feColorMatrix in="blurOut" result="blurOut2" type="matrix" values="0 0 0 0 0 0 0 0 0 0 0 0 0 0 0 0 0 0 .4 0"/><feOffset dx="4.0" dy="4.0" in="blurOut2" result="blurOut3"/><feBlend in="SourceGraphic" in2="blurOut3" mode="normal"/></filter></defs><g><!--MD5=[1410cfd5e47443e44e76c05b45b93fa2]
class package1.GUI--><a href="GUI.html" target="_top" title="GUI.html" xlink:actuate="onRequest" xlink:href="GUI.html" xlink:show="new" xlink:title="GUI.html" xlink:type="simple"><rect codeLine="5" fill="#FEFECE" filter="url(#frc8rjopj2p79)" height="166.875" id="package1.GUI" style="stroke: #A80036; stroke-width: 1.5;" width="197" x="40.5" y="129"/><ellipse cx="111.75" cy="149.0938" fill="#ADD1B2" rx="11" ry="11" style="stroke: #A80036; stroke-width: 1.0;"/><path d="M114.5156,144.9688 Q114.6719,144.75 114.8594,144.6406 Q115.0469,144.5313 115.2656,144.5313 Q115.6406,144.5313 115.875,144.7969 Q116.1094,145.0469 116.1094,145.6563 L116.1094,147.1094 Q116.1094,147.7188 115.875,147.9844 Q115.6406,148.25 115.2656,148.25 Q114.9219,148.25 114.7188,148.0469 Q114.5156,147.8594 114.4063,147.3438 Q114.3594,146.9844 114.1719,146.7969 Q113.8438,146.4219 113.2344,146.2031 Q112.625,145.9844 112,145.9844 Q111.2344,145.9844 110.5938,146.3125 Q109.9688,146.6406 109.4688,147.3906 Q108.9844,148.1406 108.9844,149.1719 L108.9844,150.2656 Q108.9844,151.5 109.875,152.3281 Q110.7656,153.1406 112.3594,153.1406 Q113.2969,153.1406 113.9531,152.8906 Q114.3438,152.7344 114.7656,152.2969 Q115.0313,152.0313 115.1719,151.9531 Q115.3281,151.875 115.5313,151.875 Q115.8594,151.875 116.1094,152.1406 Q116.375,152.3906 116.375,152.7344 Q116.375,153.0781 116.0313,153.4844 Q115.5313,154.0625 114.7344,154.3906 Q113.6563,154.8438 112.3594,154.8438 Q110.8438,154.8438 109.6406,154.2188 Q108.6563,153.7188 107.9688,152.6563 Q107.2813,151.5781 107.2813,150.2969 L107.2813,149.1406 Q107.2813,147.8125 107.8906,146.6719 Q108.5156,145.5156 109.6094,144.9063 Q110.7031,144.2813 111.9375,144.2813 Q112.6719,144.2813 113.3125,144.4531 Q113.9688,144.6094 114.5156,144.9688 Z "/><text fill="#000000" font-family="sans-serif" font-size="14" lengthAdjust="spacingAndGlyphs" textLength="23" x="143.75" y="148.5332">GUI</text><text fill="#000000" font-family="sans-serif" font-size="10" lengthAdjust="spacingAndGlyphs" textLength="46" x="132.25" y="161.9902">package1</text><line style="stroke: #A80036; stroke-width: 1.5;" x1="41.5" x2="236.5" y1="169.1875" y2="169.1875"/><ellipse cx="51.5" cy="180.1875" fill="none" rx="3" ry="3" style="stroke: #038048; stroke-width: 1.0;"/><text fill="#000000" font-family="sans-serif" font-size="11" lengthAdjust="spacingAndGlyphs" textLength="48" x="60.5" y="184.6064">b: JButton</text><ellipse cx="51.5" cy="194.0234" fill="none" rx="3" ry="3" style="stroke: #038048; stroke-width: 1.0;"/><text fill="#000000" font-family="sans-serif" font-size="11" lengthAdjust="spacingAndGlyphs" text-decoration="underline" textLength="63" x="60.5" y="198.4424">t1: JTextField</text><ellipse cx="51.5" cy="207.8594" fill="none" rx="3" ry="3" style="stroke: #038048; stroke-width: 1.0;"/><text fill="#000000" font-family="sans-serif" font-size="11" lengthAdjust="spacingAndGlyphs" text-decoration="underline" textLength="63" x="60.5" y="212.2783">t2: JTextField</text><ellipse cx="51.5" cy="221.6953" fill="none" rx="3" ry="3" style="stroke: #038048; stroke-width: 1.0;"/><text fill="#000000" font-family="sans-serif" font-size="11" lengthAdjust="spacingAndGlyphs" text-decoration="underline" textLength="66" x="60.5" y="226.1143">name1: String</text><ellipse cx="51.5" cy="235.5313" fill="none" rx="3" ry="3" style="stroke: #038048; stroke-width: 1.0;"/><text fill="#000000" font-family="sans-serif" font-size="11" lengthAdjust="spacingAndGlyphs" text-decoration="underline" textLength="92" x="60.5" y="239.9502">cardnumber: String</text><ellipse cx="51.5" cy="249.3672" fill="none" rx="3" ry="3" style="stroke: #038048; stroke-width: 1.0;"/><text fill="#000000" font-family="sans-serif" font-size="11" lengthAdjust="spacingAndGlyphs" text-decoration="underline" textLength="46" x="60.5" y="253.7861">a: String[]</text><ellipse cx="51.5" cy="263.2031" fill="none" rx="3" ry="3" style="stroke: #038048; stroke-width: 1.0;"/><text fill="#000000" font-family="sans-serif" font-size="11" lengthAdjust="spacingAndGlyphs" text-decoration="underline" textLength="52" x="60.5" y="267.6221">b1: String[]</text><line style="stroke: #A80036; stroke-width: 1.5;" x1="41.5" x2="236.5" y1="274.0391" y2="274.0391"/><ellipse cx="51.5" cy="285.0391" fill="#84BE84" rx="3" ry="3" style="stroke: #038048; stroke-width: 1.0;"/><text fill="#000000" font-family="sans-serif" font-size="11" lengthAdjust="spacingAndGlyphs" textLength="171" x="60.5" y="289.458">actionPerformed(ActionEvent): void</text></a><!--MD5=[18a7562403221f513ca44e0f82c4c17a]
class javax.swing.JFrame--><rect codeLine="16" fill="#FEFECE" filter="url(#frc8rjopj2p79)" height="40.1875" id="javax.swing.JFrame" style="stroke: #A80036; stroke-width: 1.5;" width="86" x="7" y="18"/><ellipse cx="22" cy="38.0938" fill="#ADD1B2" rx="11" ry="11" style="stroke: #A80036; stroke-width: 1.0;"/><path d="M24.7656,33.9688 Q24.9219,33.75 25.1094,33.6406 Q25.2969,33.5313 25.5156,33.5313 Q25.8906,33.5313 26.125,33.7969 Q26.3594,34.0469 26.3594,34.6563 L26.3594,36.1094 Q26.3594,36.7188 26.125,36.9844 Q25.8906,37.25 25.5156,37.25 Q25.1719,37.25 24.9688,37.0469 Q24.7656,36.8594 24.6563,36.3438 Q24.6094,35.9844 24.4219,35.7969 Q24.0938,35.4219 23.4844,35.2031 Q22.875,34.9844 22.25,34.9844 Q21.4844,34.9844 20.8438,35.3125 Q20.2188,35.6406 19.7188,36.3906 Q19.2344,37.1406 19.2344,38.1719 L19.2344,39.2656 Q19.2344,40.5 20.125,41.3281 Q21.0156,42.1406 22.6094,42.1406 Q23.5469,42.1406 24.2031,41.8906 Q24.5938,41.7344 25.0156,41.2969 Q25.2813,41.0313 25.4219,40.9531 Q25.5781,40.875 25.7813,40.875 Q26.1094,40.875 26.3594,41.1406 Q26.625,41.3906 26.625,41.7344 Q26.625,42.0781 26.2813,42.4844 Q25.7813,43.0625 24.9844,43.3906 Q23.9063,43.8438 22.6094,43.8438 Q21.0938,43.8438 19.8906,43.2188 Q18.9063,42.7188 18.2188,41.6563 Q17.5313,40.5781 17.5313,39.2969 L17.5313,38.1406 Q17.5313,36.8125 18.1406,35.6719 Q18.7656,34.5156 19.8594,33.9063 Q20.9531,33.2813 22.1875,33.2813 Q22.9219,33.2813 23.5625,33.4531 Q24.2188,33.6094 24.7656,33.9688 Z "/><text fill="#000000" font-family="sans-serif" font-size="14" lengthAdjust="spacingAndGlyphs" textLength="47" x="39.5" y="37.5332">JFrame</text><text fill="#000000" font-family="sans-serif" font-size="10" lengthAdjust="spacingAndGlyphs" textLength="54" x="36" y="50.9902">javax.swing</text><!--MD5=[6631281fcee7fc541b441b6c950a0fa0]
class java.awt.event.ActionListener--><rect codeLine="17" fill="#FEFECE" filter="url(#frc8rjopj2p79)" height="62.0234" id="java.awt.event.ActionListener" style="stroke: #A80036; stroke-width: 1.5;" width="199" x="128.5" y="7"/><ellipse cx="178.75" cy="27.0938" fill="#B4A7E5" rx="11" ry="11" style="stroke: #A80036; stroke-width: 1.0;"/><path d="M179.7031,23.7344 L179.7031,30.3906 L181.4219,30.3906 Q182.0313,30.3906 182.2969,30.625 Q182.5625,30.8594 182.5625,31.25 Q182.5625,31.625 182.2969,31.8594 Q182.0313,32.0938 181.4219,32.0938 L176.2813,32.0938 Q175.6719,32.0938 175.4063,31.8594 Q175.1406,31.625 175.1406,31.2344 Q175.1406,30.8594 175.4063,30.625 Q175.6719,30.3906 176.2813,30.3906 L178,30.3906 L178,23.7344 L176.2813,23.7344 Q175.6719,23.7344 175.4063,23.5 Q175.1406,23.2656 175.1406,22.875 Q175.1406,22.5 175.4063,22.2656 Q175.6719,22.0313 176.2813,22.0313 L181.4219,22.0313 Q182.0313,22.0313 182.2969,22.2656 Q182.5625,22.5 182.5625,22.875 Q182.5625,23.2656 182.2969,23.5 Q182.0313,23.7344 181.4219,23.7344 L179.7031,23.7344 Z "/><text fill="#000000" font-family="sans-serif" font-size="14" font-style="italic" lengthAdjust="spacingAndGlyphs" textLength="90" x="199.25" y="26.5332">ActionListener</text><text fill="#000000" font-family="sans-serif" font-size="10" font-style="italic" lengthAdjust="spacingAndGlyphs" textLength="68" x="210.25" y="39.9902">java.awt.event</text><line style="stroke: #A80036; stroke-width: 1.5;" x1="129.5" x2="326.5" y1="47.1875" y2="47.1875"/><ellipse cx="139.5" cy="58.1875" fill="#84BE84" rx="3" ry="3" style="stroke: #038048; stroke-width: 1.0;"/><text fill="#000000" font-family="sans-serif" font-size="11" font-style="italic" lengthAdjust="spacingAndGlyphs" textLength="173" x="148.5" y="62.6064">actionPerformed(ActionEvent): void</text><!--MD5=[8117a0d1bd05cb5c1ae916034cdd9463]
reverse link javax.swing.JFrame to package1.GUI--><path codeLine="21" d="M69.14,76.1 C77.15,91.61 86.79,110.31 96.33,128.79 " fill="none" id="javax.swing.JFrame-backto-package1.GUI" style="stroke: #A80036; stroke-width: 1.0;"/><polygon fill="none" points="62.81,79.1,59.86,58.12,75.26,72.68,62.81,79.1" style="stroke: #A80036; stroke-width: 1.0;"/><!--MD5=[e002aee9a5ba2036a26f8aa77240169d]
reverse link java.awt.event.ActionListener to package1.GUI--><path codeLine="22" d="M203.28,86.91 C196.56,99.94 189.08,114.44 181.66,128.81 " fill="none" id="java.awt.event.ActionListener-backto-package1.GUI" style="stroke: #A80036; stroke-width: 1.0; stroke-dasharray: 7.0,7.0;"/><polygon fill="none" points="197.11,83.61,212.5,69.05,209.55,90.03,197.11,83.61" style="stroke: #A80036; stroke-width: 1.0;"/><text fill="#888888" font-family="sans-serif" font-size="10" lengthAdjust="spacingAndGlyphs" textLength="190" x="69.25" y="319.2559">UMLDoclet 2.0.12, PlantUML 1.2020.16</text><!--MD5=[2a5a265c827bf16768380f68b65334e5]
@startuml
    set namespaceSeparator none
    hide empty fields
    hide empty methods

    class "<size:14>GUI\n<size:10>package1" as package1.GUI [[GUI.html]] {
        +b: JButton
        {static} +t1: JTextField
        {static} +t2: JTextField
        {static} +name1: String
        {static} +cardnumber: String
        {static} +a: String[]
        {static} +b1: String[]
        +actionPerformed(ActionEvent): void
    }

    class "<size:14>JFrame\n<size:10>javax.swing" as javax.swing.JFrame
    interface "<size:14>ActionListener\n<size:10>java.awt.event" as java.awt.event.ActionListener {
        {abstract} +actionPerformed(ActionEvent): void
    }

    javax.swing.JFrame <|- - package1.GUI
    java.awt.event.ActionListener <|.. package1.GUI

    center footer UMLDoclet 2.0.12, PlantUML 1.2020.16
@enduml

PlantUML version 1.2020.16(Mon Aug 24 01:50:43 IST 2020)
(APACHE source distribution)
Java Runtime: OpenJDK Runtime Environment
JVM: OpenJDK 64-Bit Server VM
Default Encoding: Cp1252
Language: en
Country: IN
--></g></svg>