<?xml version="1.0" encoding="UTF-8" standalone="no"?><svg xmlns="http://www.w3.org/2000/svg" xmlns:xlink="http://www.w3.org/1999/xlink" contentScriptType="application/ecmascript" contentStyleType="text/css" height="227px" preserveAspectRatio="none" style="width:225px;height:227px;" version="1.1" viewBox="0 0 225 227" width="225px" zoomAndPan="magnify"><defs><filter height="300%" id="fekiwf8gzpupu" width="300%" x="-1" y="-1"><feGaussianBlur result="blurOut" stdDeviation="2.0"/><feColorMatrix in="blurOut" result="blurOut2" type="matrix" values="0 0 0 0 0 0 0 0 0 0 0 0 0 0 0 0 0 0 .4 0"/><feOffset dx="4.0" dy="4.0" in="blurOut2" result="blurOut3"/><feBlend in="SourceGraphic" in2="blurOut3" mode="normal"/></filter></defs><g><!--MD5=[4a9626a643166ba8da2c5b7c3dc23e51]
class package1.options--><a href="options.html" target="_top" title="options.html" xlink:actuate="onRequest" xlink:href="options.html" xlink:show="new" xlink:title="options.html" xlink:type="simple"><rect codeLine="5" fill="#FEFECE" filter="url(#fekiwf8gzpupu)" height="62.0234" id="package1.options" style="stroke: #A80036; stroke-width: 1.5;" width="197" x="8" y="129"/><ellipse cx="79.25" cy="149.0938" fill="#ADD1B2" rx="11" ry="11" style="stroke: #A80036; stroke-width: 1.0;"/><path d="M82.0156,144.9688 Q82.1719,144.75 82.3594,144.6406 Q82.5469,144.5313 82.7656,144.5313 Q83.1406,144.5313 83.375,144.7969 Q83.6094,145.0469 83.6094,145.6563 L83.6094,147.1094 Q83.6094,147.7188 83.375,147.9844 Q83.1406,148.25 82.7656,148.25 Q82.4219,148.25 82.2188,148.0469 Q82.0156,147.8594 81.9063,147.3438 Q81.8594,146.9844 81.6719,146.7969 Q81.3438,146.4219 80.7344,146.2031 Q80.125,145.9844 79.5,145.9844 Q78.7344,145.9844 78.0938,146.3125 Q77.4688,146.6406 76.9688,147.3906 Q76.4844,148.1406 76.4844,149.1719 L76.4844,150.2656 Q76.4844,151.5 77.375,152.3281 Q78.2656,153.1406 79.8594,153.1406 Q80.7969,153.1406 81.4531,152.8906 Q81.8438,152.7344 82.2656,152.2969 Q82.5313,152.0313 82.6719,151.9531 Q82.8281,151.875 83.0313,151.875 Q83.3594,151.875 83.6094,152.1406 Q83.875,152.3906 83.875,152.7344 Q83.875,153.0781 83.5313,153.4844 Q83.0313,154.0625 82.2344,154.3906 Q81.1563,154.8438 79.8594,154.8438 Q78.3438,154.8438 77.1406,154.2188 Q76.1563,153.7188 75.4688,152.6563 Q74.7813,151.5781 74.7813,150.2969 L74.7813,149.1406 Q74.7813,147.8125 75.3906,146.6719 Q76.0156,145.5156 77.1094,144.9063 Q78.2031,144.2813 79.4375,144.2813 Q80.1719,144.2813 80.8125,144.4531 Q81.4688,144.6094 82.0156,144.9688 Z "/><text fill="#000000" font-family="sans-serif" font-size="14" lengthAdjust="spacingAndGlyphs" textLength="46" x="99.75" y="148.5332">options</text><text fill="#000000" font-family="sans-serif" font-size="10" lengthAdjust="spacingAndGlyphs" textLength="46" x="99.75" y="161.9902">package1</text><line style="stroke: #A80036; stroke-width: 1.5;" x1="9" x2="204" y1="169.1875" y2="169.1875"/><ellipse cx="19" cy="180.1875" fill="#84BE84" rx="3" ry="3" style="stroke: #038048; stroke-width: 1.0;"/><text fill="#000000" font-family="sans-serif" font-size="11" lengthAdjust="spacingAndGlyphs" textLength="171" x="28" y="184.6064">actionPerformed(ActionEvent): void</text></a><!--MD5=[6631281fcee7fc541b441b6c950a0fa0]
class java.awt.event.ActionListener--><rect codeLine="9" fill="#FEFECE" filter="url(#fekiwf8gzpupu)" height="62.0234" id="java.awt.event.ActionListener" style="stroke: #A80036; stroke-width: 1.5;" width="199" x="7" y="7"/><ellipse cx="57.25" cy="27.0938" fill="#B4A7E5" rx="11" ry="11" style="stroke: #A80036; stroke-width: 1.0;"/><path d="M58.2031,23.7344 L58.2031,30.3906 L59.9219,30.3906 Q60.5313,30.3906 60.7969,30.625 Q61.0625,30.8594 61.0625,31.25 Q61.0625,31.625 60.7969,31.8594 Q60.5313,32.0938 59.9219,32.0938 L54.7813,32.0938 Q54.1719,32.0938 53.9063,31.8594 Q53.6406,31.625 53.6406,31.2344 Q53.6406,30.8594 53.9063,30.625 Q54.1719,30.3906 54.7813,30.3906 L56.5,30.3906 L56.5,23.7344 L54.7813,23.7344 Q54.1719,23.7344 53.9063,23.5 Q53.6406,23.2656 53.6406,22.875 Q53.6406,22.5 53.9063,22.2656 Q54.1719,22.0313 54.7813,22.0313 L59.9219,22.0313 Q60.5313,22.0313 60.7969,22.2656 Q61.0625,22.5 61.0625,22.875 Q61.0625,23.2656 60.7969,23.5 Q60.5313,23.7344 59.9219,23.7344 L58.2031,23.7344 Z "/><text fill="#000000" font-family="sans-serif" font-size="14" font-style="italic" lengthAdjust="spacingAndGlyphs" textLength="90" x="77.75" y="26.5332">ActionListener</text><text fill="#000000" font-family="sans-serif" font-size="10" font-style="italic" lengthAdjust="spacingAndGlyphs" textLength="68" x="88.75" y="39.9902">java.awt.event</text><line style="stroke: #A80036; stroke-width: 1.5;" x1="8" x2="205" y1="47.1875" y2="47.1875"/><ellipse cx="18" cy="58.1875" fill="#84BE84" rx="3" ry="3" style="stroke: #038048; stroke-width: 1.0;"/><text fill="#000000" font-family="sans-serif" font-size="11" font-style="italic" lengthAdjust="spacingAndGlyphs" textLength="173" x="27" y="62.6064">actionPerformed(ActionEvent): void</text><!--MD5=[3d43d5b34f9ec954955a96901de584a1]
reverse link java.awt.event.ActionListener to package1.options--><path codeLine="13" d="M106.5,89.37 C106.5,102.75 106.5,116.79 106.5,128.73 " fill="none" id="java.awt.event.ActionListener-backto-package1.options" style="stroke: #A80036; stroke-width: 1.0; stroke-dasharray: 7.0,7.0;"/><polygon fill="none" points="99.5,89.28,106.5,69.28,113.5,89.28,99.5,89.28" style="stroke: #A80036; stroke-width: 1.0;"/><text fill="#888888" font-family="sans-serif" font-size="10" lengthAdjust="spacingAndGlyphs" textLength="190" x="8.5" y="214.4043">UMLDoclet 2.0.12, PlantUML 1.2020.16</text><!--MD5=[0018f1760b0a81440de073bf4f2e3ac8]
@startuml
    set namespaceSeparator none
    hide empty fields
    hide empty methods

    class "<size:14>options\n<size:10>package1" as package1.options [[options.html]] {
        +actionPerformed(ActionEvent): void
    }

    interface "<size:14>ActionListener\n<size:10>java.awt.event" as java.awt.event.ActionListener {
        {abstract} +actionPerformed(ActionEvent): void
    }

    java.awt.event.ActionListener <|.. package1.options

    center footer UMLDoclet 2.0.12, PlantUML 1.2020.16
@enduml

PlantUML version 1.2020.16(Mon Aug 24 01:50:43 IST 2020)
(APACHE source distribution)
Java Runtime: OpenJDK Runtime Environment
JVM: OpenJDK 64-Bit Server VM
Default Encoding: Cp1252
Language: en
Country: IN
--></g></svg>