<?xml version="1.0" encoding="UTF-8" standalone="no"?><svg xmlns="http://www.w3.org/2000/svg" xmlns:xlink="http://www.w3.org/1999/xlink" contentScriptType="application/ecmascript" contentStyleType="text/css" height="684px" preserveAspectRatio="none" style="width:1041px;height:684px;" version="1.1" viewBox="0 0 1041 684" width="1041px" zoomAndPan="magnify"><defs><filter height="300%" id="f3pityw3yaj33" width="300%" x="-1" y="-1"><feGaussianBlur result="blurOut" stdDeviation="2.0"/><feColorMatrix in="blurOut" result="blurOut2" type="matrix" values="0 0 0 0 0 0 0 0 0 0 0 0 0 0 0 0 0 0 .4 0"/><feOffset dx="4.0" dy="4.0" in="blurOut2" result="blurOut3"/><feBlend in="SourceGraphic" in2="blurOut3" mode="normal"/></filter></defs><g><!--MD5=[59a53e578c4a7218c8c63c2f3637388a]
cluster package1--><polygon fill="#FFFFFF" filter="url(#f3pityw3yaj33)" points="16,172,89,172,96,195.6094,1019,195.6094,1019,655,16,655,16,172" style="stroke: #000000; stroke-width: 1.5;"/><line style="stroke: #000000; stroke-width: 1.5;" x1="16" x2="96" y1="195.6094" y2="195.6094"/><text fill="#000000" font-family="sans-serif" font-size="14" font-weight="bold" lengthAdjust="spacingAndGlyphs" textLength="67" x="20" y="188.5332">package1</text><!--MD5=[535aab4de90d4dfa371a9b40d5438fc3]
cluster javax.swing--><polygon fill="#FFFFFF" filter="url(#f3pityw3yaj33)" points="75,6,163,6,170,29.6094,319,29.6094,319,148,75,148,75,6" style="stroke: #000000; stroke-width: 1.5;"/><line style="stroke: #000000; stroke-width: 1.5;" x1="75" x2="170" y1="29.6094" y2="29.6094"/><text fill="#000000" font-family="sans-serif" font-size="14" font-weight="bold" lengthAdjust="spacingAndGlyphs" textLength="82" x="79" y="22.5332">javax.swing</text><!--MD5=[d63c23c2d4b14118d71bd46d55a646bd]
cluster java.awt.event--><polygon fill="#FFFFFF" filter="url(#f3pityw3yaj33)" points="382,20,490,20,497,43.6094,614,43.6094,614,134,382,134,382,20" style="stroke: #000000; stroke-width: 1.5;"/><line style="stroke: #000000; stroke-width: 1.5;" x1="382" x2="497" y1="43.6094" y2="43.6094"/><text fill="#000000" font-family="sans-serif" font-size="14" font-weight="bold" lengthAdjust="spacingAndGlyphs" textLength="102" x="386" y="36.5332">java.awt.event</text><!--MD5=[86a9a4e0479fc1784623460465ee76e3]
class package1.balance--><a href="balance.html" target="_top" title="balance.html" xlink:actuate="onRequest" xlink:href="balance.html" xlink:show="new" xlink:title="balance.html" xlink:type="simple"><rect codeLine="3" fill="#FEFECE" filter="url(#f3pityw3yaj33)" height="48" id="package1.balance" style="stroke: #A80036; stroke-width: 1.5;" width="76" x="671" y="263.5"/><ellipse cx="686" cy="279.5" fill="#ADD1B2" rx="11" ry="11" style="stroke: #A80036; stroke-width: 1.0;"/><path d="M688.7656,275.375 Q688.9219,275.1563 689.1094,275.0469 Q689.2969,274.9375 689.5156,274.9375 Q689.8906,274.9375 690.125,275.2031 Q690.3594,275.4531 690.3594,276.0625 L690.3594,277.5156 Q690.3594,278.125 690.125,278.3906 Q689.8906,278.6563 689.5156,278.6563 Q689.1719,278.6563 688.9688,278.4531 Q688.7656,278.2656 688.6563,277.75 Q688.6094,277.3906 688.4219,277.2031 Q688.0938,276.8281 687.4844,276.6094 Q686.875,276.3906 686.25,276.3906 Q685.4844,276.3906 684.8438,276.7188 Q684.2188,277.0469 683.7188,277.7969 Q683.2344,278.5469 683.2344,279.5781 L683.2344,280.6719 Q683.2344,281.9063 684.125,282.7344 Q685.0156,283.5469 686.6094,283.5469 Q687.5469,283.5469 688.2031,283.2969 Q688.5938,283.1406 689.0156,282.7031 Q689.2813,282.4375 689.4219,282.3594 Q689.5781,282.2813 689.7813,282.2813 Q690.1094,282.2813 690.3594,282.5469 Q690.625,282.7969 690.625,283.1406 Q690.625,283.4844 690.2813,283.8906 Q689.7813,284.4688 688.9844,284.7969 Q687.9063,285.25 686.6094,285.25 Q685.0938,285.25 683.8906,284.625 Q682.9063,284.125 682.2188,283.0625 Q681.5313,281.9844 681.5313,280.7031 L681.5313,279.5469 Q681.5313,278.2188 682.1406,277.0781 Q682.7656,275.9219 683.8594,275.3125 Q684.9531,274.6875 686.1875,274.6875 Q686.9219,274.6875 687.5625,274.8594 Q688.2188,275.0156 688.7656,275.375 Z "/><text fill="#000000" font-family="sans-serif" font-size="12" lengthAdjust="spacingAndGlyphs" textLength="44" x="700" y="284.4102">balance</text><line style="stroke: #A80036; stroke-width: 1.5;" x1="672" x2="746" y1="295.5" y2="295.5"/><line style="stroke: #A80036; stroke-width: 1.5;" x1="672" x2="746" y1="303.5" y2="303.5"/></a><!--MD5=[e1f8197d66c6dfd1c47ee0e186c39369]
class package1.deposit--><a href="deposit.html" target="_top" title="deposit.html" xlink:actuate="onRequest" xlink:href="deposit.html" xlink:show="new" xlink:title="deposit.html" xlink:type="simple"><rect codeLine="6" fill="#FEFECE" filter="url(#f3pityw3yaj33)" height="75.6719" id="package1.deposit" style="stroke: #A80036; stroke-width: 1.5;" width="139" x="32.5" y="249.5"/><ellipse cx="77.25" cy="265.5" fill="#ADD1B2" rx="11" ry="11" style="stroke: #A80036; stroke-width: 1.0;"/><path d="M80.0156,261.375 Q80.1719,261.1563 80.3594,261.0469 Q80.5469,260.9375 80.7656,260.9375 Q81.1406,260.9375 81.375,261.2031 Q81.6094,261.4531 81.6094,262.0625 L81.6094,263.5156 Q81.6094,264.125 81.375,264.3906 Q81.1406,264.6563 80.7656,264.6563 Q80.4219,264.6563 80.2188,264.4531 Q80.0156,264.2656 79.9063,263.75 Q79.8594,263.3906 79.6719,263.2031 Q79.3438,262.8281 78.7344,262.6094 Q78.125,262.3906 77.5,262.3906 Q76.7344,262.3906 76.0938,262.7188 Q75.4688,263.0469 74.9688,263.7969 Q74.4844,264.5469 74.4844,265.5781 L74.4844,266.6719 Q74.4844,267.9063 75.375,268.7344 Q76.2656,269.5469 77.8594,269.5469 Q78.7969,269.5469 79.4531,269.2969 Q79.8438,269.1406 80.2656,268.7031 Q80.5313,268.4375 80.6719,268.3594 Q80.8281,268.2813 81.0313,268.2813 Q81.3594,268.2813 81.6094,268.5469 Q81.875,268.7969 81.875,269.1406 Q81.875,269.4844 81.5313,269.8906 Q81.0313,270.4688 80.2344,270.7969 Q79.1563,271.25 77.8594,271.25 Q76.3438,271.25 75.1406,270.625 Q74.1563,270.125 73.4688,269.0625 Q72.7813,267.9844 72.7813,266.7031 L72.7813,265.5469 Q72.7813,264.2188 73.3906,263.0781 Q74.0156,261.9219 75.1094,261.3125 Q76.2031,260.6875 77.4375,260.6875 Q78.1719,260.6875 78.8125,260.8594 Q79.4688,261.0156 80.0156,261.375 Z "/><text fill="#000000" font-family="sans-serif" font-size="12" lengthAdjust="spacingAndGlyphs" textLength="41" x="97.75" y="270.4102">deposit</text><line style="stroke: #A80036; stroke-width: 1.5;" x1="33.5" x2="170.5" y1="281.5" y2="281.5"/><ellipse cx="43.5" cy="292.5" fill="none" rx="3" ry="3" style="stroke: #038048; stroke-width: 1.0;"/><text fill="#000000" font-family="sans-serif" font-size="11" lengthAdjust="spacingAndGlyphs" text-decoration="underline" textLength="79" x="52.5" y="296.9189">deposit4: double</text><line style="stroke: #A80036; stroke-width: 1.5;" x1="33.5" x2="170.5" y1="303.3359" y2="303.3359"/><ellipse cx="43.5" cy="314.3359" fill="#84BE84" rx="3" ry="3" style="stroke: #038048; stroke-width: 1.0;"/><text fill="#000000" font-family="sans-serif" font-size="11" lengthAdjust="spacingAndGlyphs" text-decoration="underline" textLength="113" x="52.5" y="318.7549">check(double): boolean</text></a><!--MD5=[33d220b2908b3f90599b2d724ac46d5b]
class package1.feedback--><a href="feedback.html" target="_top" title="feedback.html" xlink:actuate="onRequest" xlink:href="feedback.html" xlink:show="new" xlink:title="feedback.html" xlink:type="simple"><rect codeLine="11" fill="#FEFECE" filter="url(#f3pityw3yaj33)" height="61.8359" id="package1.feedback" style="stroke: #A80036; stroke-width: 1.5;" width="116" x="782" y="256.5"/><ellipse cx="812.3" cy="272.5" fill="#ADD1B2" rx="11" ry="11" style="stroke: #A80036; stroke-width: 1.0;"/><path d="M815.0656,268.375 Q815.2219,268.1563 815.4094,268.0469 Q815.5969,267.9375 815.8156,267.9375 Q816.1906,267.9375 816.425,268.2031 Q816.6594,268.4531 816.6594,269.0625 L816.6594,270.5156 Q816.6594,271.125 816.425,271.3906 Q816.1906,271.6563 815.8156,271.6563 Q815.4719,271.6563 815.2688,271.4531 Q815.0656,271.2656 814.9563,270.75 Q814.9094,270.3906 814.7219,270.2031 Q814.3938,269.8281 813.7844,269.6094 Q813.175,269.3906 812.55,269.3906 Q811.7844,269.3906 811.1438,269.7188 Q810.5188,270.0469 810.0188,270.7969 Q809.5344,271.5469 809.5344,272.5781 L809.5344,273.6719 Q809.5344,274.9063 810.425,275.7344 Q811.3156,276.5469 812.9094,276.5469 Q813.8469,276.5469 814.5031,276.2969 Q814.8938,276.1406 815.3156,275.7031 Q815.5813,275.4375 815.7219,275.3594 Q815.8781,275.2813 816.0813,275.2813 Q816.4094,275.2813 816.6594,275.5469 Q816.925,275.7969 816.925,276.1406 Q816.925,276.4844 816.5813,276.8906 Q816.0813,277.4688 815.2844,277.7969 Q814.2063,278.25 812.9094,278.25 Q811.3938,278.25 810.1906,277.625 Q809.2063,277.125 808.5188,276.0625 Q807.8313,274.9844 807.8313,273.7031 L807.8313,272.5469 Q807.8313,271.2188 808.4406,270.0781 Q809.0656,268.9219 810.1594,268.3125 Q811.2531,267.6875 812.4875,267.6875 Q813.2219,267.6875 813.8625,267.8594 Q814.5188,268.0156 815.0656,268.375 Z "/><text fill="#000000" font-family="sans-serif" font-size="12" lengthAdjust="spacingAndGlyphs" textLength="50" x="829.7" y="277.4102">feedback</text><line style="stroke: #A80036; stroke-width: 1.5;" x1="783" x2="897" y1="288.5" y2="288.5"/><line style="stroke: #A80036; stroke-width: 1.5;" x1="783" x2="897" y1="296.5" y2="296.5"/><ellipse cx="793" cy="307.5" fill="#84BE84" rx="3" ry="3" style="stroke: #038048; stroke-width: 1.0;"/><text fill="#000000" font-family="sans-serif" font-size="11" lengthAdjust="spacingAndGlyphs" text-decoration="underline" textLength="90" x="802" y="311.9189">main(String[]): void</text></a><!--MD5=[278797e8a0863886c35a9d9cb7054d76]
class package1.genbill--><a href="genbill.html" target="_top" title="genbill.html" xlink:actuate="onRequest" xlink:href="genbill.html" xlink:show="new" xlink:title="genbill.html" xlink:type="simple"><rect codeLine="15" fill="#FEFECE" filter="url(#f3pityw3yaj33)" height="48" id="package1.genbill" style="stroke: #A80036; stroke-width: 1.5;" width="69" x="933.5" y="263.5"/><ellipse cx="948.5" cy="279.5" fill="#ADD1B2" rx="11" ry="11" style="stroke: #A80036; stroke-width: 1.0;"/><path d="M951.2656,275.375 Q951.4219,275.1563 951.6094,275.0469 Q951.7969,274.9375 952.0156,274.9375 Q952.3906,274.9375 952.625,275.2031 Q952.8594,275.4531 952.8594,276.0625 L952.8594,277.5156 Q952.8594,278.125 952.625,278.3906 Q952.3906,278.6563 952.0156,278.6563 Q951.6719,278.6563 951.4688,278.4531 Q951.2656,278.2656 951.1563,277.75 Q951.1094,277.3906 950.9219,277.2031 Q950.5938,276.8281 949.9844,276.6094 Q949.375,276.3906 948.75,276.3906 Q947.9844,276.3906 947.3438,276.7188 Q946.7188,277.0469 946.2188,277.7969 Q945.7344,278.5469 945.7344,279.5781 L945.7344,280.6719 Q945.7344,281.9063 946.625,282.7344 Q947.5156,283.5469 949.1094,283.5469 Q950.0469,283.5469 950.7031,283.2969 Q951.0938,283.1406 951.5156,282.7031 Q951.7813,282.4375 951.9219,282.3594 Q952.0781,282.2813 952.2813,282.2813 Q952.6094,282.2813 952.8594,282.5469 Q953.125,282.7969 953.125,283.1406 Q953.125,283.4844 952.7813,283.8906 Q952.2813,284.4688 951.4844,284.7969 Q950.4063,285.25 949.1094,285.25 Q947.5938,285.25 946.3906,284.625 Q945.4063,284.125 944.7188,283.0625 Q944.0313,281.9844 944.0313,280.7031 L944.0313,279.5469 Q944.0313,278.2188 944.6406,277.0781 Q945.2656,275.9219 946.3594,275.3125 Q947.4531,274.6875 948.6875,274.6875 Q949.4219,274.6875 950.0625,274.8594 Q950.7188,275.0156 951.2656,275.375 Z "/><text fill="#000000" font-family="sans-serif" font-size="12" lengthAdjust="spacingAndGlyphs" textLength="37" x="962.5" y="284.4102">genbill</text><line style="stroke: #A80036; stroke-width: 1.5;" x1="934.5" x2="1001.5" y1="295.5" y2="295.5"/><line style="stroke: #A80036; stroke-width: 1.5;" x1="934.5" x2="1001.5" y1="303.5" y2="303.5"/></a><!--MD5=[1410cfd5e47443e44e76c05b45b93fa2]
class package1.GUI--><a href="GUI.html" target="_top" title="GUI.html" xlink:actuate="onRequest" xlink:href="GUI.html" xlink:show="new" xlink:title="GUI.html" xlink:type="simple"><rect codeLine="17" fill="#FEFECE" filter="url(#f3pityw3yaj33)" height="158.6875" id="package1.GUI" style="stroke: #A80036; stroke-width: 1.5;" width="197" x="206.5" y="208"/><ellipse cx="290.25" cy="224" fill="#ADD1B2" rx="11" ry="11" style="stroke: #A80036; stroke-width: 1.0;"/><path d="M293.0156,219.875 Q293.1719,219.6563 293.3594,219.5469 Q293.5469,219.4375 293.7656,219.4375 Q294.1406,219.4375 294.375,219.7031 Q294.6094,219.9531 294.6094,220.5625 L294.6094,222.0156 Q294.6094,222.625 294.375,222.8906 Q294.1406,223.1563 293.7656,223.1563 Q293.4219,223.1563 293.2188,222.9531 Q293.0156,222.7656 292.9063,222.25 Q292.8594,221.8906 292.6719,221.7031 Q292.3438,221.3281 291.7344,221.1094 Q291.125,220.8906 290.5,220.8906 Q289.7344,220.8906 289.0938,221.2188 Q288.4688,221.5469 287.9688,222.2969 Q287.4844,223.0469 287.4844,224.0781 L287.4844,225.1719 Q287.4844,226.4063 288.375,227.2344 Q289.2656,228.0469 290.8594,228.0469 Q291.7969,228.0469 292.4531,227.7969 Q292.8438,227.6406 293.2656,227.2031 Q293.5313,226.9375 293.6719,226.8594 Q293.8281,226.7813 294.0313,226.7813 Q294.3594,226.7813 294.6094,227.0469 Q294.875,227.2969 294.875,227.6406 Q294.875,227.9844 294.5313,228.3906 Q294.0313,228.9688 293.2344,229.2969 Q292.1563,229.75 290.8594,229.75 Q289.3438,229.75 288.1406,229.125 Q287.1563,228.625 286.4688,227.5625 Q285.7813,226.4844 285.7813,225.2031 L285.7813,224.0469 Q285.7813,222.7188 286.3906,221.5781 Q287.0156,220.4219 288.1094,219.8125 Q289.2031,219.1875 290.4375,219.1875 Q291.1719,219.1875 291.8125,219.3594 Q292.4688,219.5156 293.0156,219.875 Z "/><text fill="#000000" font-family="sans-serif" font-size="12" lengthAdjust="spacingAndGlyphs" textLength="21" x="310.75" y="228.9102">GUI</text><line style="stroke: #A80036; stroke-width: 1.5;" x1="207.5" x2="402.5" y1="240" y2="240"/><ellipse cx="217.5" cy="251" fill="none" rx="3" ry="3" style="stroke: #038048; stroke-width: 1.0;"/><text fill="#000000" font-family="sans-serif" font-size="11" lengthAdjust="spacingAndGlyphs" textLength="48" x="226.5" y="255.4189">b: JButton</text><ellipse cx="217.5" cy="264.8359" fill="none" rx="3" ry="3" style="stroke: #038048; stroke-width: 1.0;"/><text fill="#000000" font-family="sans-serif" font-size="11" lengthAdjust="spacingAndGlyphs" text-decoration="underline" textLength="63" x="226.5" y="269.2549">t1: JTextField</text><ellipse cx="217.5" cy="278.6719" fill="none" rx="3" ry="3" style="stroke: #038048; stroke-width: 1.0;"/><text fill="#000000" font-family="sans-serif" font-size="11" lengthAdjust="spacingAndGlyphs" text-decoration="underline" textLength="63" x="226.5" y="283.0908">t2: JTextField</text><ellipse cx="217.5" cy="292.5078" fill="none" rx="3" ry="3" style="stroke: #038048; stroke-width: 1.0;"/><text fill="#000000" font-family="sans-serif" font-size="11" lengthAdjust="spacingAndGlyphs" text-decoration="underline" textLength="66" x="226.5" y="296.9268">name1: String</text><ellipse cx="217.5" cy="306.3438" fill="none" rx="3" ry="3" style="stroke: #038048; stroke-width: 1.0;"/><text fill="#000000" font-family="sans-serif" font-size="11" lengthAdjust="spacingAndGlyphs" text-decoration="underline" textLength="92" x="226.5" y="310.7627">cardnumber: String</text><ellipse cx="217.5" cy="320.1797" fill="none" rx="3" ry="3" style="stroke: #038048; stroke-width: 1.0;"/><text fill="#000000" font-family="sans-serif" font-size="11" lengthAdjust="spacingAndGlyphs" text-decoration="underline" textLength="46" x="226.5" y="324.5986">a: String[]</text><ellipse cx="217.5" cy="334.0156" fill="none" rx="3" ry="3" style="stroke: #038048; stroke-width: 1.0;"/><text fill="#000000" font-family="sans-serif" font-size="11" lengthAdjust="spacingAndGlyphs" text-decoration="underline" textLength="52" x="226.5" y="338.4346">b1: String[]</text><line style="stroke: #A80036; stroke-width: 1.5;" x1="207.5" x2="402.5" y1="344.8516" y2="344.8516"/><ellipse cx="217.5" cy="355.8516" fill="#84BE84" rx="3" ry="3" style="stroke: #038048; stroke-width: 1.0;"/><text fill="#000000" font-family="sans-serif" font-size="11" lengthAdjust="spacingAndGlyphs" textLength="171" x="226.5" y="360.2705">actionPerformed(ActionEvent): void</text></a><!--MD5=[4a9626a643166ba8da2c5b7c3dc23e51]
class package1.options--><a href="options.html" target="_top" title="options.html" xlink:actuate="onRequest" xlink:href="options.html" xlink:show="new" xlink:title="options.html" xlink:type="simple"><rect codeLine="28" fill="#FEFECE" filter="url(#f3pityw3yaj33)" height="61.8359" id="package1.options" style="stroke: #A80036; stroke-width: 1.5;" width="197" x="438.5" y="256.5"/><ellipse cx="512.25" cy="272.5" fill="#ADD1B2" rx="11" ry="11" style="stroke: #A80036; stroke-width: 1.0;"/><path d="M515.0156,268.375 Q515.1719,268.1563 515.3594,268.0469 Q515.5469,267.9375 515.7656,267.9375 Q516.1406,267.9375 516.375,268.2031 Q516.6094,268.4531 516.6094,269.0625 L516.6094,270.5156 Q516.6094,271.125 516.375,271.3906 Q516.1406,271.6563 515.7656,271.6563 Q515.4219,271.6563 515.2188,271.4531 Q515.0156,271.2656 514.9063,270.75 Q514.8594,270.3906 514.6719,270.2031 Q514.3438,269.8281 513.7344,269.6094 Q513.125,269.3906 512.5,269.3906 Q511.7344,269.3906 511.0938,269.7188 Q510.4688,270.0469 509.9688,270.7969 Q509.4844,271.5469 509.4844,272.5781 L509.4844,273.6719 Q509.4844,274.9063 510.375,275.7344 Q511.2656,276.5469 512.8594,276.5469 Q513.7969,276.5469 514.4531,276.2969 Q514.8438,276.1406 515.2656,275.7031 Q515.5313,275.4375 515.6719,275.3594 Q515.8281,275.2813 516.0313,275.2813 Q516.3594,275.2813 516.6094,275.5469 Q516.875,275.7969 516.875,276.1406 Q516.875,276.4844 516.5313,276.8906 Q516.0313,277.4688 515.2344,277.7969 Q514.1563,278.25 512.8594,278.25 Q511.3438,278.25 510.1406,277.625 Q509.1563,277.125 508.4688,276.0625 Q507.7813,274.9844 507.7813,273.7031 L507.7813,272.5469 Q507.7813,271.2188 508.3906,270.0781 Q509.0156,268.9219 510.1094,268.3125 Q511.2031,267.6875 512.4375,267.6875 Q513.1719,267.6875 513.8125,267.8594 Q514.4688,268.0156 515.0156,268.375 Z "/><text fill="#000000" font-family="sans-serif" font-size="12" lengthAdjust="spacingAndGlyphs" textLength="41" x="532.75" y="277.4102">options</text><line style="stroke: #A80036; stroke-width: 1.5;" x1="439.5" x2="634.5" y1="288.5" y2="288.5"/><line style="stroke: #A80036; stroke-width: 1.5;" x1="439.5" x2="634.5" y1="296.5" y2="296.5"/><ellipse cx="449.5" cy="307.5" fill="#84BE84" rx="3" ry="3" style="stroke: #038048; stroke-width: 1.0;"/><text fill="#000000" font-family="sans-serif" font-size="11" lengthAdjust="spacingAndGlyphs" textLength="171" x="458.5" y="311.9189">actionPerformed(ActionEvent): void</text></a><!--MD5=[3494d5fbdfd6dd3ba801e13452b73416]
class package1.secondpage--><a href="secondpage.html" target="_top" title="secondpage.html" xlink:actuate="onRequest" xlink:href="secondpage.html" xlink:show="new" xlink:title="secondpage.html" xlink:type="simple"><rect codeLine="32" fill="#FEFECE" filter="url(#f3pityw3yaj33)" height="61.8359" id="package1.secondpage" style="stroke: #A80036; stroke-width: 1.5;" width="116" x="585" y="441"/><ellipse cx="606.75" cy="457" fill="#ADD1B2" rx="11" ry="11" style="stroke: #A80036; stroke-width: 1.0;"/><path d="M609.5156,452.875 Q609.6719,452.6563 609.8594,452.5469 Q610.0469,452.4375 610.2656,452.4375 Q610.6406,452.4375 610.875,452.7031 Q611.1094,452.9531 611.1094,453.5625 L611.1094,455.0156 Q611.1094,455.625 610.875,455.8906 Q610.6406,456.1563 610.2656,456.1563 Q609.9219,456.1563 609.7188,455.9531 Q609.5156,455.7656 609.4063,455.25 Q609.3594,454.8906 609.1719,454.7031 Q608.8438,454.3281 608.2344,454.1094 Q607.625,453.8906 607,453.8906 Q606.2344,453.8906 605.5938,454.2188 Q604.9688,454.5469 604.4688,455.2969 Q603.9844,456.0469 603.9844,457.0781 L603.9844,458.1719 Q603.9844,459.4063 604.875,460.2344 Q605.7656,461.0469 607.3594,461.0469 Q608.2969,461.0469 608.9531,460.7969 Q609.3438,460.6406 609.7656,460.2031 Q610.0313,459.9375 610.1719,459.8594 Q610.3281,459.7813 610.5313,459.7813 Q610.8594,459.7813 611.1094,460.0469 Q611.375,460.2969 611.375,460.6406 Q611.375,460.9844 611.0313,461.3906 Q610.5313,461.9688 609.7344,462.2969 Q608.6563,462.75 607.3594,462.75 Q605.8438,462.75 604.6406,462.125 Q603.6563,461.625 602.9688,460.5625 Q602.2813,459.4844 602.2813,458.2031 L602.2813,457.0469 Q602.2813,455.7188 602.8906,454.5781 Q603.5156,453.4219 604.6094,452.8125 Q605.7031,452.1875 606.9375,452.1875 Q607.6719,452.1875 608.3125,452.3594 Q608.9688,452.5156 609.5156,452.875 Z "/><text fill="#000000" font-family="sans-serif" font-size="12" lengthAdjust="spacingAndGlyphs" textLength="69" x="622.25" y="461.9102">secondpage</text><line style="stroke: #A80036; stroke-width: 1.5;" x1="586" x2="700" y1="473" y2="473"/><line style="stroke: #A80036; stroke-width: 1.5;" x1="586" x2="700" y1="481" y2="481"/><ellipse cx="596" cy="492" fill="#84BE84" rx="3" ry="3" style="stroke: #038048; stroke-width: 1.0;"/><text fill="#000000" font-family="sans-serif" font-size="11" lengthAdjust="spacingAndGlyphs" text-decoration="underline" textLength="90" x="605" y="496.4189">main(String[]): void</text></a><!--MD5=[7fb50109e02242a6b42848644b64d61f]
class package1.signup--><a href="signup.html" target="_top" title="signup.html" xlink:actuate="onRequest" xlink:href="signup.html" xlink:show="new" xlink:title="signup.html" xlink:type="simple"><rect codeLine="36" fill="#FEFECE" filter="url(#f3pityw3yaj33)" height="89.5078" id="package1.signup" style="stroke: #A80036; stroke-width: 1.5;" width="116" x="736" y="427"/><ellipse cx="771.7" cy="443" fill="#ADD1B2" rx="11" ry="11" style="stroke: #A80036; stroke-width: 1.0;"/><path d="M774.4656,438.875 Q774.6219,438.6563 774.8094,438.5469 Q774.9969,438.4375 775.2156,438.4375 Q775.5906,438.4375 775.825,438.7031 Q776.0594,438.9531 776.0594,439.5625 L776.0594,441.0156 Q776.0594,441.625 775.825,441.8906 Q775.5906,442.1563 775.2156,442.1563 Q774.8719,442.1563 774.6688,441.9531 Q774.4656,441.7656 774.3563,441.25 Q774.3094,440.8906 774.1219,440.7031 Q773.7938,440.3281 773.1844,440.1094 Q772.575,439.8906 771.95,439.8906 Q771.1844,439.8906 770.5438,440.2188 Q769.9188,440.5469 769.4188,441.2969 Q768.9344,442.0469 768.9344,443.0781 L768.9344,444.1719 Q768.9344,445.4063 769.825,446.2344 Q770.7156,447.0469 772.3094,447.0469 Q773.2469,447.0469 773.9031,446.7969 Q774.2938,446.6406 774.7156,446.2031 Q774.9813,445.9375 775.1219,445.8594 Q775.2781,445.7813 775.4813,445.7813 Q775.8094,445.7813 776.0594,446.0469 Q776.325,446.2969 776.325,446.6406 Q776.325,446.9844 775.9813,447.3906 Q775.4813,447.9688 774.6844,448.2969 Q773.6063,448.75 772.3094,448.75 Q770.7938,448.75 769.5906,448.125 Q768.6063,447.625 767.9188,446.5625 Q767.2313,445.4844 767.2313,444.2031 L767.2313,443.0469 Q767.2313,441.7188 767.8406,440.5781 Q768.4656,439.4219 769.5594,438.8125 Q770.6531,438.1875 771.8875,438.1875 Q772.6219,438.1875 773.2625,438.3594 Q773.9188,438.5156 774.4656,438.875 Z "/><text fill="#000000" font-family="sans-serif" font-size="12" lengthAdjust="spacingAndGlyphs" textLength="38" x="790.3" y="447.9102">signup</text><line style="stroke: #A80036; stroke-width: 1.5;" x1="737" x2="851" y1="459" y2="459"/><ellipse cx="747" cy="470" fill="none" rx="3" ry="3" style="stroke: #038048; stroke-width: 1.0;"/><text fill="#000000" font-family="sans-serif" font-size="11" lengthAdjust="spacingAndGlyphs" text-decoration="underline" textLength="46" x="756" y="474.4189">d: String[]</text><ellipse cx="747" cy="483.8359" fill="none" rx="3" ry="3" style="stroke: #038048; stroke-width: 1.0;"/><text fill="#000000" font-family="sans-serif" font-size="11" lengthAdjust="spacingAndGlyphs" text-decoration="underline" textLength="52" x="756" y="488.2549">b3: String[]</text><line style="stroke: #A80036; stroke-width: 1.5;" x1="737" x2="851" y1="494.6719" y2="494.6719"/><ellipse cx="747" cy="505.6719" fill="#84BE84" rx="3" ry="3" style="stroke: #038048; stroke-width: 1.0;"/><text fill="#000000" font-family="sans-serif" font-size="11" lengthAdjust="spacingAndGlyphs" text-decoration="underline" textLength="90" x="756" y="510.0908">main(String[]): void</text></a><!--MD5=[7162c1a6e1407399aa4ba8a16db49b72]
class package1.startpage--><a href="startpage.html" target="_top" title="startpage.html" xlink:actuate="onRequest" xlink:href="startpage.html" xlink:show="new" xlink:title="startpage.html" xlink:type="simple"><rect codeLine="42" fill="#FEFECE" filter="url(#f3pityw3yaj33)" height="61.8359" id="package1.startpage" style="stroke: #A80036; stroke-width: 1.5;" width="116" x="887" y="441"/><ellipse cx="916.4" cy="457" fill="#ADD1B2" rx="11" ry="11" style="stroke: #A80036; stroke-width: 1.0;"/><path d="M919.1656,452.875 Q919.3219,452.6563 919.5094,452.5469 Q919.6969,452.4375 919.9156,452.4375 Q920.2906,452.4375 920.525,452.7031 Q920.7594,452.9531 920.7594,453.5625 L920.7594,455.0156 Q920.7594,455.625 920.525,455.8906 Q920.2906,456.1563 919.9156,456.1563 Q919.5719,456.1563 919.3688,455.9531 Q919.1656,455.7656 919.0563,455.25 Q919.0094,454.8906 918.8219,454.7031 Q918.4938,454.3281 917.8844,454.1094 Q917.275,453.8906 916.65,453.8906 Q915.8844,453.8906 915.2438,454.2188 Q914.6188,454.5469 914.1188,455.2969 Q913.6344,456.0469 913.6344,457.0781 L913.6344,458.1719 Q913.6344,459.4063 914.525,460.2344 Q915.4156,461.0469 917.0094,461.0469 Q917.9469,461.0469 918.6031,460.7969 Q918.9938,460.6406 919.4156,460.2031 Q919.6813,459.9375 919.8219,459.8594 Q919.9781,459.7813 920.1813,459.7813 Q920.5094,459.7813 920.7594,460.0469 Q921.025,460.2969 921.025,460.6406 Q921.025,460.9844 920.6813,461.3906 Q920.1813,461.9688 919.3844,462.2969 Q918.3063,462.75 917.0094,462.75 Q915.4938,462.75 914.2906,462.125 Q913.3063,461.625 912.6188,460.5625 Q911.9313,459.4844 911.9313,458.2031 L911.9313,457.0469 Q911.9313,455.7188 912.5406,454.5781 Q913.1656,453.4219 914.2594,452.8125 Q915.3531,452.1875 916.5875,452.1875 Q917.3219,452.1875 917.9625,452.3594 Q918.6188,452.5156 919.1656,452.875 Z "/><text fill="#000000" font-family="sans-serif" font-size="12" lengthAdjust="spacingAndGlyphs" textLength="52" x="933.6" y="461.9102">startpage</text><line style="stroke: #A80036; stroke-width: 1.5;" x1="888" x2="1002" y1="473" y2="473"/><line style="stroke: #A80036; stroke-width: 1.5;" x1="888" x2="1002" y1="481" y2="481"/><ellipse cx="898" cy="492" fill="#84BE84" rx="3" ry="3" style="stroke: #038048; stroke-width: 1.0;"/><text fill="#000000" font-family="sans-serif" font-size="11" lengthAdjust="spacingAndGlyphs" text-decoration="underline" textLength="90" x="907" y="496.4189">main(String[]): void</text></a><!--MD5=[f78935505a5c0ef569a9305bc9574835]
class package1.withdraw--><a href="withdraw.html" target="_top" title="withdraw.html" xlink:actuate="onRequest" xlink:href="withdraw.html" xlink:show="new" xlink:title="withdraw.html" xlink:type="simple"><rect codeLine="46" fill="#FEFECE" filter="url(#f3pityw3yaj33)" height="61.8359" id="package1.withdraw" style="stroke: #A80036; stroke-width: 1.5;" width="117" x="584.5" y="577"/><ellipse cx="615.7" cy="593" fill="#ADD1B2" rx="11" ry="11" style="stroke: #A80036; stroke-width: 1.0;"/><path d="M618.4656,588.875 Q618.6219,588.6563 618.8094,588.5469 Q618.9969,588.4375 619.2156,588.4375 Q619.5906,588.4375 619.825,588.7031 Q620.0594,588.9531 620.0594,589.5625 L620.0594,591.0156 Q620.0594,591.625 619.825,591.8906 Q619.5906,592.1563 619.2156,592.1563 Q618.8719,592.1563 618.6688,591.9531 Q618.4656,591.7656 618.3563,591.25 Q618.3094,590.8906 618.1219,590.7031 Q617.7938,590.3281 617.1844,590.1094 Q616.575,589.8906 615.95,589.8906 Q615.1844,589.8906 614.5438,590.2188 Q613.9188,590.5469 613.4188,591.2969 Q612.9344,592.0469 612.9344,593.0781 L612.9344,594.1719 Q612.9344,595.4063 613.825,596.2344 Q614.7156,597.0469 616.3094,597.0469 Q617.2469,597.0469 617.9031,596.7969 Q618.2938,596.6406 618.7156,596.2031 Q618.9813,595.9375 619.1219,595.8594 Q619.2781,595.7813 619.4813,595.7813 Q619.8094,595.7813 620.0594,596.0469 Q620.325,596.2969 620.325,596.6406 Q620.325,596.9844 619.9813,597.3906 Q619.4813,597.9688 618.6844,598.2969 Q617.6063,598.75 616.3094,598.75 Q614.7938,598.75 613.5906,598.125 Q612.6063,597.625 611.9188,596.5625 Q611.2313,595.4844 611.2313,594.2031 L611.2313,593.0469 Q611.2313,591.7188 611.8406,590.5781 Q612.4656,589.4219 613.5594,588.8125 Q614.6531,588.1875 615.8875,588.1875 Q616.6219,588.1875 617.2625,588.3594 Q617.9188,588.5156 618.4656,588.875 Z "/><text fill="#000000" font-family="sans-serif" font-size="12" lengthAdjust="spacingAndGlyphs" textLength="49" x="633.3" y="597.9102">withdraw</text><line style="stroke: #A80036; stroke-width: 1.5;" x1="585.5" x2="700.5" y1="609" y2="609"/><ellipse cx="595.5" cy="620" fill="none" rx="3" ry="3" style="stroke: #038048; stroke-width: 1.0;"/><text fill="#000000" font-family="sans-serif" font-size="11" lengthAdjust="spacingAndGlyphs" text-decoration="underline" textLength="91" x="604.5" y="624.4189">withdraw3: double</text><line style="stroke: #A80036; stroke-width: 1.5;" x1="585.5" x2="700.5" y1="630.8359" y2="630.8359"/></a><!--MD5=[18a7562403221f513ca44e0f82c4c17a]
class javax.swing.JFrame--><rect codeLine="57" fill="#FEFECE" filter="url(#f3pityw3yaj33)" height="89.5078" id="javax.swing.JFrame" style="stroke: #A80036; stroke-width: 1.5;" width="212" x="91" y="42"/><ellipse cx="171.75" cy="58" fill="#ADD1B2" rx="11" ry="11" style="stroke: #A80036; stroke-width: 1.0;"/><path d="M174.5156,53.875 Q174.6719,53.6563 174.8594,53.5469 Q175.0469,53.4375 175.2656,53.4375 Q175.6406,53.4375 175.875,53.7031 Q176.1094,53.9531 176.1094,54.5625 L176.1094,56.0156 Q176.1094,56.625 175.875,56.8906 Q175.6406,57.1563 175.2656,57.1563 Q174.9219,57.1563 174.7188,56.9531 Q174.5156,56.7656 174.4063,56.25 Q174.3594,55.8906 174.1719,55.7031 Q173.8438,55.3281 173.2344,55.1094 Q172.625,54.8906 172,54.8906 Q171.2344,54.8906 170.5938,55.2188 Q169.9688,55.5469 169.4688,56.2969 Q168.9844,57.0469 168.9844,58.0781 L168.9844,59.1719 Q168.9844,60.4063 169.875,61.2344 Q170.7656,62.0469 172.3594,62.0469 Q173.2969,62.0469 173.9531,61.7969 Q174.3438,61.6406 174.7656,61.2031 Q175.0313,60.9375 175.1719,60.8594 Q175.3281,60.7813 175.5313,60.7813 Q175.8594,60.7813 176.1094,61.0469 Q176.375,61.2969 176.375,61.6406 Q176.375,61.9844 176.0313,62.3906 Q175.5313,62.9688 174.7344,63.2969 Q173.6563,63.75 172.3594,63.75 Q170.8438,63.75 169.6406,63.125 Q168.6563,62.625 167.9688,61.5625 Q167.2813,60.4844 167.2813,59.2031 L167.2813,58.0469 Q167.2813,56.7188 167.8906,55.5781 Q168.5156,54.4219 169.6094,53.8125 Q170.7031,53.1875 171.9375,53.1875 Q172.6719,53.1875 173.3125,53.3594 Q173.9688,53.5156 174.5156,53.875 Z "/><text fill="#000000" font-family="sans-serif" font-size="12" lengthAdjust="spacingAndGlyphs" textLength="42" x="192.25" y="62.9102">JFrame</text><line style="stroke: #A80036; stroke-width: 1.5;" x1="92" x2="302" y1="74" y2="74"/><polygon fill="none" points="102,80,106,84,102,88,98,84" style="stroke: #B38D22; stroke-width: 1.0;"/><text fill="#000000" font-family="sans-serif" font-size="11" lengthAdjust="spacingAndGlyphs" textLength="100" x="111" y="89.4189">rootPane: JRootPane</text><polygon fill="none" points="102,93.8359,106,97.8359,102,101.8359,98,97.8359" style="stroke: #B38D22; stroke-width: 1.0;"/><text fill="#000000" font-family="sans-serif" font-size="11" lengthAdjust="spacingAndGlyphs" textLength="169" x="111" y="103.2549">rootPaneCheckingEnabled: boolean</text><polygon fill="none" points="102,107.6719,106,111.6719,102,115.6719,98,111.6719" style="stroke: #B38D22; stroke-width: 1.0;"/><text fill="#000000" font-family="sans-serif" font-size="11" lengthAdjust="spacingAndGlyphs" textLength="186" x="111" y="117.0908">accessibleContext: AccessibleContext</text><line style="stroke: #A80036; stroke-width: 1.5;" x1="92" x2="302" y1="123.5078" y2="123.5078"/><!--MD5=[6631281fcee7fc541b441b6c950a0fa0]
class java.awt.event.ActionListener--><rect codeLine="65" fill="#FEFECE" filter="url(#f3pityw3yaj33)" height="61.8359" id="java.awt.event.ActionListener" style="stroke: #A80036; stroke-width: 1.5;" width="199" x="398.5" y="56"/><ellipse cx="454.75" cy="72" fill="#B4A7E5" rx="11" ry="11" style="stroke: #A80036; stroke-width: 1.0;"/><path d="M455.7031,68.6406 L455.7031,75.2969 L457.4219,75.2969 Q458.0313,75.2969 458.2969,75.5313 Q458.5625,75.7656 458.5625,76.1563 Q458.5625,76.5313 458.2969,76.7656 Q458.0313,77 457.4219,77 L452.2813,77 Q451.6719,77 451.4063,76.7656 Q451.1406,76.5313 451.1406,76.1406 Q451.1406,75.7656 451.4063,75.5313 Q451.6719,75.2969 452.2813,75.2969 L454,75.2969 L454,68.6406 L452.2813,68.6406 Q451.6719,68.6406 451.4063,68.4063 Q451.1406,68.1719 451.1406,67.7813 Q451.1406,67.4063 451.4063,67.1719 Q451.6719,66.9375 452.2813,66.9375 L457.4219,66.9375 Q458.0313,66.9375 458.2969,67.1719 Q458.5625,67.4063 458.5625,67.7813 Q458.5625,68.1719 458.2969,68.4063 Q458.0313,68.6406 457.4219,68.6406 L455.7031,68.6406 Z "/><text fill="#000000" font-family="sans-serif" font-size="12" font-style="italic" lengthAdjust="spacingAndGlyphs" textLength="78" x="475.25" y="76.9102">ActionListener</text><line style="stroke: #A80036; stroke-width: 1.5;" x1="399.5" x2="596.5" y1="88" y2="88"/><line style="stroke: #A80036; stroke-width: 1.5;" x1="399.5" x2="596.5" y1="96" y2="96"/><ellipse cx="409.5" cy="107" fill="#84BE84" rx="3" ry="3" style="stroke: #038048; stroke-width: 1.0;"/><text fill="#000000" font-family="sans-serif" font-size="11" font-style="italic" lengthAdjust="spacingAndGlyphs" textLength="173" x="418.5" y="111.4189">actionPerformed(ActionEvent): void</text><!--MD5=[ece482f4d743634b8ea699754302df59]
reverse link javax.swing.JFrame to package1.deposit--><path codeLine="50" d="M167.17,150.34 C151.62,182.81 133.14,221.43 119.83,249.24 " fill="none" id="javax.swing.JFrame-backto-package1.deposit" style="stroke: #A80036; stroke-width: 1.0;"/><polygon fill="none" points="160.97,147.07,175.92,132.05,173.6,153.12,160.97,147.07" style="stroke: #A80036; stroke-width: 1.0;"/><!--MD5=[8117a0d1bd05cb5c1ae916034cdd9463]
reverse link javax.swing.JFrame to package1.GUI--><path codeLine="51" d="M230.55,149.66 C240.56,168.06 251.67,188.48 262.19,207.81 " fill="none" id="javax.swing.JFrame-backto-package1.GUI" style="stroke: #A80036; stroke-width: 1.0;"/><polygon fill="none" points="224.38,152.97,220.97,132.05,236.68,146.28,224.38,152.97" style="stroke: #A80036; stroke-width: 1.0;"/><!--MD5=[e002aee9a5ba2036a26f8aa77240169d]
reverse link java.awt.event.ActionListener to package1.GUI--><path codeLine="52" d="M452.75,132.16 C442.26,142.54 431.18,153.6 421,164 C407.27,178.02 392.78,193.09 378.87,207.7 " fill="none" id="java.awt.event.ActionListener-backto-package1.GUI" style="stroke: #A80036; stroke-width: 1.0; stroke-dasharray: 7.0,7.0;"/><polygon fill="none" points="447.88,127.13,467.04,118.09,457.7,137.11,447.88,127.13" style="stroke: #A80036; stroke-width: 1.0;"/><!--MD5=[3d43d5b34f9ec954955a96901de584a1]
reverse link java.awt.event.ActionListener to package1.options--><path codeLine="53" d="M507.81,137.91 C515.14,175.22 524.91,224.99 531.09,256.39 " fill="none" id="java.awt.event.ActionListener-backto-package1.options" style="stroke: #A80036; stroke-width: 1.0; stroke-dasharray: 7.0,7.0;"/><polygon fill="none" points="500.91,139.12,503.92,118.15,514.65,136.42,500.91,139.12" style="stroke: #A80036; stroke-width: 1.0;"/><!--MD5=[750f4df9ced7b3b1e6f3cf4306d46697]
link package1.balance to package1.feedback--><!--MD5=[c4c43f1f6572d42364579977a062bed8]
link package1.feedback to package1.genbill--><!--MD5=[738f53a02b4a3fe6371c1eb81a51b5b8]
link package1.balance to package1.secondpage--><!--MD5=[c16c65d01beaa0af640aadf14546a25f]
link package1.secondpage to package1.signup--><!--MD5=[501117843dd1df37c86cc752f9de0ba5]
link package1.signup to package1.startpage--><!--MD5=[a25dd32eef47848dc34628066bfb5ffe]
link package1.secondpage to package1.withdraw--><text fill="#888888" font-family="sans-serif" font-size="10" lengthAdjust="spacingAndGlyphs" textLength="190" x="416.5" y="671.3809">UMLDoclet 2.0.12, PlantUML 1.2020.16</text><!--MD5=[7a34db9a222208f00a732a43b7d2bd14]
@startuml
    namespace package1 {

        class balance [[balance.html]] {
        }

        class deposit [[deposit.html]] {
            {static} +deposit4: double
            {static} +check(double): boolean
        }

        class feedback [[feedback.html]] {
            {static} +main(String[]): void
        }

        class genbill [[genbill.html]]

        class GUI [[GUI.html]] {
            +b: JButton
            {static} +t1: JTextField
            {static} +t2: JTextField
            {static} +name1: String
            {static} +cardnumber: String
            {static} +a: String[]
            {static} +b1: String[]
            +actionPerformed(ActionEvent): void
        }

        class options [[options.html]] {
            +actionPerformed(ActionEvent): void
        }

        class secondpage [[secondpage.html]] {
            {static} +main(String[]): void
        }

        class signup [[signup.html]] {
            {static} +d: String[]
            {static} +b3: String[]
            {static} +main(String[]): void
        }

        class startpage [[startpage.html]] {
            {static} +main(String[]): void
        }

        class withdraw [[withdraw.html]] {
            {static} +withdraw3: double
        }

        javax.swing.JFrame <|- - deposit
        javax.swing.JFrame <|- - GUI
        java.awt.event.ActionListener <|.. GUI
        java.awt.event.ActionListener <|.. options
    }

    namespace javax.swing {
        class JFrame {
            #rootPane: JRootPane
            #rootPaneCheckingEnabled: boolean
            #accessibleContext: AccessibleContext
        }
    }

    namespace java.awt.event {
        interface ActionListener {
            {abstract} +actionPerformed(ActionEvent): void
        }
    }

    center footer UMLDoclet 2.0.12, PlantUML 1.2020.16
@enduml

PlantUML version 1.2020.16(Mon Aug 24 01:50:43 IST 2020)
(APACHE source distribution)
Java Runtime: OpenJDK Runtime Environment
JVM: OpenJDK 64-Bit Server VM
Default Encoding: Cp1252
Language: en
Country: IN
--></g></svg>