<?xml version="1.0" encoding="UTF-8" standalone="no"?><svg xmlns="http://www.w3.org/2000/svg" xmlns:xlink="http://www.w3.org/1999/xlink" contentScriptType="application/ecmascript" contentStyleType="text/css" height="135px" preserveAspectRatio="none" style="width:202px;height:135px;" version="1.1" viewBox="0 0 202 135" width="202px" zoomAndPan="magnify"><defs><filter height="300%" id="f1ifkxtocn29qf" width="300%" x="-1" y="-1"><feGaussianBlur result="blurOut" stdDeviation="2.0"/><feColorMatrix in="blurOut" result="blurOut2" type="matrix" values="0 0 0 0 0 0 0 0 0 0 0 0 0 0 0 0 0 0 .4 0"/><feOffset dx="4.0" dy="4.0" in="blurOut2" result="blurOut3"/><feBlend in="SourceGraphic" in2="blurOut3" mode="normal"/></filter></defs><g><!--MD5=[7fb50109e02242a6b42848644b64d61f]
class package1.signup--><a href="signup.html" target="_top" title="signup.html" xlink:actuate="onRequest" xlink:href="signup.html" xlink:show="new" xlink:title="signup.html" xlink:type="simple"><rect codeLine="5" fill="#FEFECE" filter="url(#f1ifkxtocn29qf)" height="97.6953" id="package1.signup" style="stroke: #A80036; stroke-width: 1.5;" width="116" x="37" y="7"/><ellipse cx="69.1" cy="27.0938" fill="#ADD1B2" rx="11" ry="11" style="stroke: #A80036; stroke-width: 1.0;"/><path d="M71.8656,22.9688 Q72.0219,22.75 72.2094,22.6406 Q72.3969,22.5313 72.6156,22.5313 Q72.9906,22.5313 73.225,22.7969 Q73.4594,23.0469 73.4594,23.6563 L73.4594,25.1094 Q73.4594,25.7188 73.225,25.9844 Q72.9906,26.25 72.6156,26.25 Q72.2719,26.25 72.0688,26.0469 Q71.8656,25.8594 71.7563,25.3438 Q71.7094,24.9844 71.5219,24.7969 Q71.1938,24.4219 70.5844,24.2031 Q69.975,23.9844 69.35,23.9844 Q68.5844,23.9844 67.9438,24.3125 Q67.3188,24.6406 66.8188,25.3906 Q66.3344,26.1406 66.3344,27.1719 L66.3344,28.2656 Q66.3344,29.5 67.225,30.3281 Q68.1156,31.1406 69.7094,31.1406 Q70.6469,31.1406 71.3031,30.8906 Q71.6938,30.7344 72.1156,30.2969 Q72.3813,30.0313 72.5219,29.9531 Q72.6781,29.875 72.8813,29.875 Q73.2094,29.875 73.4594,30.1406 Q73.725,30.3906 73.725,30.7344 Q73.725,31.0781 73.3813,31.4844 Q72.8813,32.0625 72.0844,32.3906 Q71.0063,32.8438 69.7094,32.8438 Q68.1938,32.8438 66.9906,32.2188 Q66.0063,31.7188 65.3188,30.6563 Q64.6313,29.5781 64.6313,28.2969 L64.6313,27.1406 Q64.6313,25.8125 65.2406,24.6719 Q65.8656,23.5156 66.9594,22.9063 Q68.0531,22.2813 69.2875,22.2813 Q70.0219,22.2813 70.6625,22.4531 Q71.3188,22.6094 71.8656,22.9688 Z "/><text fill="#000000" font-family="sans-serif" font-size="14" lengthAdjust="spacingAndGlyphs" textLength="42" x="88.9" y="26.5332">signup</text><text fill="#000000" font-family="sans-serif" font-size="10" lengthAdjust="spacingAndGlyphs" textLength="46" x="86.9" y="39.9902">package1</text><line style="stroke: #A80036; stroke-width: 1.5;" x1="38" x2="152" y1="47.1875" y2="47.1875"/><ellipse cx="48" cy="58.1875" fill="none" rx="3" ry="3" style="stroke: #038048; stroke-width: 1.0;"/><text fill="#000000" font-family="sans-serif" font-size="11" lengthAdjust="spacingAndGlyphs" text-decoration="underline" textLength="46" x="57" y="62.6064">d: String[]</text><ellipse cx="48" cy="72.0234" fill="none" rx="3" ry="3" style="stroke: #038048; stroke-width: 1.0;"/><text fill="#000000" font-family="sans-serif" font-size="11" lengthAdjust="spacingAndGlyphs" text-decoration="underline" textLength="52" x="57" y="76.4424">b3: String[]</text><line style="stroke: #A80036; stroke-width: 1.5;" x1="38" x2="152" y1="82.8594" y2="82.8594"/><ellipse cx="48" cy="93.8594" fill="#84BE84" rx="3" ry="3" style="stroke: #038048; stroke-width: 1.0;"/><text fill="#000000" font-family="sans-serif" font-size="11" lengthAdjust="spacingAndGlyphs" text-decoration="underline" textLength="90" x="57" y="98.2783">main(String[]): void</text></a><text fill="#888888" font-family="sans-serif" font-size="10" lengthAdjust="spacingAndGlyphs" textLength="190" x="0" y="122.0762">UMLDoclet 2.0.12, PlantUML 1.2020.16</text><!--MD5=[ba62158e50f0ba5dde6933e3d4551e0d]
@startuml
    set namespaceSeparator none
    hide empty fields
    hide empty methods

    class "<size:14>signup\n<size:10>package1" as package1.signup [[signup.html]] {
        {static} +d: String[]
        {static} +b3: String[]
        {static} +main(String[]): void
    }

    center footer UMLDoclet 2.0.12, PlantUML 1.2020.16
@enduml

PlantUML version 1.2020.16(Mon Aug 24 01:50:43 IST 2020)
(APACHE source distribution)
Java Runtime: OpenJDK Runtime Environment
JVM: OpenJDK 64-Bit Server VM
Default Encoding: Cp1252
Language: en
Country: IN
--></g></svg>