<?xml version="1.0" encoding="UTF-8" standalone="no"?><svg xmlns="http://www.w3.org/2000/svg" xmlns:xlink="http://www.w3.org/1999/xlink" contentScriptType="application/ecmascript" contentStyleType="text/css" height="99px" preserveAspectRatio="none" style="width:202px;height:99px;" version="1.1" viewBox="0 0 202 99" width="202px" zoomAndPan="magnify"><defs><filter height="300%" id="f4dxxo5o86v6v" width="300%" x="-1" y="-1"><feGaussianBlur result="blurOut" stdDeviation="2.0"/><feColorMatrix in="blurOut" result="blurOut2" type="matrix" values="0 0 0 0 0 0 0 0 0 0 0 0 0 0 0 0 0 0 .4 0"/><feOffset dx="4.0" dy="4.0" in="blurOut2" result="blurOut3"/><feBlend in="SourceGraphic" in2="blurOut3" mode="normal"/></filter></defs><g><!--MD5=[7162c1a6e1407399aa4ba8a16db49b72]
class package1.startpage--><a href="startpage.html" target="_top" title="startpage.html" xlink:actuate="onRequest" xlink:href="startpage.html" xlink:show="new" xlink:title="startpage.html" xlink:type="simple"><rect codeLine="5" fill="#FEFECE" filter="url(#f4dxxo5o86v6v)" height="62.0234" id="package1.startpage" style="stroke: #A80036; stroke-width: 1.5;" width="116" x="37" y="7"/><ellipse cx="62.8" cy="27.0938" fill="#ADD1B2" rx="11" ry="11" style="stroke: #A80036; stroke-width: 1.0;"/><path d="M65.5656,22.9688 Q65.7219,22.75 65.9094,22.6406 Q66.0969,22.5313 66.3156,22.5313 Q66.6906,22.5313 66.925,22.7969 Q67.1594,23.0469 67.1594,23.6563 L67.1594,25.1094 Q67.1594,25.7188 66.925,25.9844 Q66.6906,26.25 66.3156,26.25 Q65.9719,26.25 65.7688,26.0469 Q65.5656,25.8594 65.4563,25.3438 Q65.4094,24.9844 65.2219,24.7969 Q64.8938,24.4219 64.2844,24.2031 Q63.675,23.9844 63.05,23.9844 Q62.2844,23.9844 61.6438,24.3125 Q61.0188,24.6406 60.5188,25.3906 Q60.0344,26.1406 60.0344,27.1719 L60.0344,28.2656 Q60.0344,29.5 60.925,30.3281 Q61.8156,31.1406 63.4094,31.1406 Q64.3469,31.1406 65.0031,30.8906 Q65.3938,30.7344 65.8156,30.2969 Q66.0813,30.0313 66.2219,29.9531 Q66.3781,29.875 66.5813,29.875 Q66.9094,29.875 67.1594,30.1406 Q67.425,30.3906 67.425,30.7344 Q67.425,31.0781 67.0813,31.4844 Q66.5813,32.0625 65.7844,32.3906 Q64.7063,32.8438 63.4094,32.8438 Q61.8938,32.8438 60.6906,32.2188 Q59.7063,31.7188 59.0188,30.6563 Q58.3313,29.5781 58.3313,28.2969 L58.3313,27.1406 Q58.3313,25.8125 58.9406,24.6719 Q59.5656,23.5156 60.6594,22.9063 Q61.7531,22.2813 62.9875,22.2813 Q63.7219,22.2813 64.3625,22.4531 Q65.0188,22.6094 65.5656,22.9688 Z "/><text fill="#000000" font-family="sans-serif" font-size="14" lengthAdjust="spacingAndGlyphs" textLength="60" x="79.2" y="26.5332">startpage</text><text fill="#000000" font-family="sans-serif" font-size="10" lengthAdjust="spacingAndGlyphs" textLength="46" x="86.2" y="39.9902">package1</text><line style="stroke: #A80036; stroke-width: 1.5;" x1="38" x2="152" y1="47.1875" y2="47.1875"/><ellipse cx="48" cy="58.1875" fill="#84BE84" rx="3" ry="3" style="stroke: #038048; stroke-width: 1.0;"/><text fill="#000000" font-family="sans-serif" font-size="11" lengthAdjust="spacingAndGlyphs" text-decoration="underline" textLength="90" x="57" y="62.6064">main(String[]): void</text></a><text fill="#888888" font-family="sans-serif" font-size="10" lengthAdjust="spacingAndGlyphs" textLength="190" x="0" y="86.4043">UMLDoclet 2.0.12, PlantUML 1.2020.16</text><!--MD5=[319e55c32c0d5f7328fa3f2837ac61a1]
@startuml
    set namespaceSeparator none
    hide empty fields
    hide empty methods

    class "<size:14>startpage\n<size:10>package1" as package1.startpage [[startpage.html]] {
        {static} +main(String[]): void
    }

    center footer UMLDoclet 2.0.12, PlantUML 1.2020.16
@enduml

PlantUML version 1.2020.16(Mon Aug 24 01:50:43 IST 2020)
(APACHE source distribution)
Java Runtime: OpenJDK Runtime Environment
JVM: OpenJDK 64-Bit Server VM
Default Encoding: Cp1252
Language: en
Country: IN
--></g></svg>